<?xml version="1.0"?>
<svg id="a" data-name="Layer 1" xmlns="http://www.w3.org/2000/svg" viewBox="0 0 500 500">
  <defs>
    
  </defs>
  <path class="b" d="M283.35,409.22c18.98-27.15,12.39-52.25-4.37-69.01-29.66-29.65-67.66-42.05-103.1-65.52-47.68-31.57-63.63-56.73-43.55-124.05-1.35,29.95,15.04,49.2,49.52,71.52,34.43,22.29,103.64,56.3,122.27,84.52,20.27,30.71,4.65,78.38-20.77,102.54Z"></path>
  <path class="b" d="M256.31,425.73h0c13.31-16.51-5.75-39.44-20.94-49.31-11.05-7.19-40.31-21.21-70.03-35.97-29.73-14.76-45.81-40.18-33.01-85.28,2.57,18.44,14.35,25.21,30.9,36.18,36.41,24.14,87.24,40,110.02,70.32,10.73,14.28,6.75,41.78-16.94,64.05Z"></path>
  <path class="b" d="M340.83,210.13c10.98-7.06,32.64-10.87,48.1-4.47-2.15-13.96-13.7-36.82-46.67-45.63-2.54-.68-4.69-2.35-5.93-4.67-6.27-11.8-12.77-17.79-25.02-25.35-32.71-20.19-76.5-8.55-112.75-15.11-13.51-2.44-32.76-6.15-45.34-16.15-8.19-6.5-11.43-16.07-12.65-25.13-5.33,10.93-38.47,83.55,84.09,146.56,50.54,25.98,80.1,44.19,101.74,79.47,14.6,23.81,12.08,62.49-16.16,94.66,0,0,86.84-53.97,30.44-146.53-9.38-15.4-20.34-24.46.14-37.64ZM281.11,156.15c3.52-4.27,24.92-2.19,31.11,0,5.5,1.95,11.25,5.23,12.28,8.25-12.06,16.74-36.47-9.22-43.38-8.25Z"></path>
</svg>