<?xml version="1.0"?>
<svg id="a" data-name="Layer 1" xmlns="http://www.w3.org/2000/svg" viewBox="0 0 500 500">
  <defs>
    
  </defs>
  <g>
    <path fill="#FAFAFA" d="M117.68,424.11h4.21c2.5,0,4.06,1.42,4.06,3.57v.03c0,2.4-1.92,3.65-4.27,3.65h-2.12v3.43h-1.88v-10.68ZM121.74,429.66c1.42,0,2.3-.79,2.3-1.91v-.03c0-1.25-.9-1.91-2.3-1.91h-2.18v3.85h2.18Z"></path>
    <path fill="#FAFAFA" d="M129.4,424.11h1.88v4.44h5.1v-4.44h1.88v10.68h-1.88v-4.5h-5.1v4.5h-1.88v-10.68Z"></path>
    <path fill="#FAFAFA" d="M141.7,429.48v-.03c0-3.01,2.32-5.53,5.6-5.53s5.57,2.49,5.57,5.5v.03c0,3.01-2.32,5.53-5.6,5.53s-5.57-2.49-5.57-5.49ZM150.9,429.48v-.03c0-2.08-1.51-3.79-3.63-3.79s-3.6,1.68-3.6,3.75v.03c0,2.08,1.51,3.79,3.63,3.79s3.6-1.68,3.6-3.75Z"></path>
    <path fill="#FAFAFA" d="M156.32,424.11h7.92v1.68h-6.04v2.78h5.36v1.69h-5.36v2.85h6.12v1.68h-8v-10.68Z"></path>
    <path fill="#FAFAFA" d="M167.77,424.11h1.74l5.72,7.39v-7.39h1.85v10.68h-1.57l-5.89-7.6v7.6h-1.85v-10.68Z"></path>
    <path fill="#FAFAFA" d="M182.25,424.11h1.88v10.68h-1.88v-10.68Z"></path>
    <path fill="#FAFAFA" d="M197.42,424.11l-3.72,5.22,3.88,5.46h-2.21l-2.82-4.08-2.81,4.08h-2.15l3.86-5.43-3.71-5.25h2.21l2.64,3.86,2.69-3.86h2.15Z"></path>
    <path fill="#FAFAFA" d="M207.5,433.24l1.13-1.34c1.02.88,2.06,1.39,3.37,1.39,1.16,0,1.89-.55,1.89-1.34v-.03c0-.76-.43-1.18-2.41-1.63-2.27-.55-3.56-1.22-3.56-3.19v-.03c0-1.83,1.53-3.1,3.65-3.1,1.56,0,2.79.47,3.88,1.34l-1.01,1.42c-.96-.72-1.92-1.1-2.9-1.1-1.1,0-1.74.56-1.74,1.27v.03c0,.82.49,1.19,2.55,1.68,2.26.55,3.42,1.36,3.42,3.13v.03c0,2-1.57,3.19-3.82,3.19-1.63,0-3.17-.56-4.46-1.71Z"></path>
    <path fill="#FAFAFA" d="M219.22,429.48v-.03c0-3.01,2.32-5.53,5.6-5.53s5.57,2.49,5.57,5.5v.03c0,3.01-2.32,5.53-5.6,5.53s-5.57-2.49-5.57-5.49ZM228.42,429.48v-.03c0-2.08-1.51-3.79-3.63-3.79s-3.6,1.68-3.6,3.75v.03c0,2.08,1.51,3.79,3.63,3.79s3.6-1.68,3.6-3.75Z"></path>
    <path fill="#FAFAFA" d="M233.84,424.11h1.88v8.97h5.62v1.71h-7.49v-10.68Z"></path>
    <path fill="#FAFAFA" d="M244.78,430.26v-6.15h1.88v6.07c0,1.98,1.02,3.04,2.7,3.04s2.69-.99,2.69-2.96v-6.15h1.88v6.06c0,3.19-1.8,4.79-4.59,4.79s-4.55-1.6-4.55-4.7Z"></path>
    <path fill="#FAFAFA" d="M260.78,425.85h-3.4v-1.74h8.69v1.74h-3.4v8.94h-1.88v-8.94Z"></path>
    <path fill="#FAFAFA" d="M269.51,424.11h1.88v10.68h-1.88v-10.68Z"></path>
    <path fill="#FAFAFA" d="M274.83,429.48v-.03c0-3.01,2.32-5.53,5.6-5.53s5.57,2.49,5.57,5.5v.03c0,3.01-2.32,5.53-5.6,5.53s-5.57-2.49-5.57-5.49ZM284.04,429.48v-.03c0-2.08-1.51-3.79-3.63-3.79s-3.6,1.68-3.6,3.75v.03c0,2.08,1.51,3.79,3.63,3.79s3.6-1.68,3.6-3.75Z"></path>
    <path fill="#FAFAFA" d="M289.46,424.11h1.74l5.72,7.39v-7.39h1.85v10.68h-1.57l-5.89-7.6v7.6h-1.85v-10.68Z"></path>
    <path fill="#FAFAFA" d="M301.78,433.24l1.13-1.34c1.02.88,2.06,1.39,3.37,1.39,1.16,0,1.89-.55,1.89-1.34v-.03c0-.76-.43-1.18-2.41-1.63-2.27-.55-3.56-1.22-3.56-3.19v-.03c0-1.83,1.53-3.1,3.65-3.1,1.56,0,2.79.47,3.88,1.34l-1.01,1.42c-.96-.72-1.92-1.1-2.9-1.1-1.1,0-1.74.56-1.74,1.27v.03c0,.82.49,1.19,2.55,1.68,2.26.55,3.42,1.36,3.42,3.13v.03c0,2-1.57,3.19-3.82,3.19-1.63,0-3.17-.56-4.46-1.71Z"></path>
    <path fill="#FAFAFA" d="M320.4,429.48v-.03c0-2.99,2.29-5.53,5.51-5.53,1.86,0,3.01.52,4.11,1.45l-1.19,1.42c-.82-.69-1.63-1.13-2.99-1.13-1.97,0-3.46,1.71-3.46,3.75v.03c0,2.2,1.45,3.82,3.63,3.82,1.01,0,1.92-.32,2.58-.81v-1.98h-2.73v-1.65h4.55v4.49c-1.05.9-2.56,1.66-4.46,1.66-3.34,0-5.54-2.38-5.54-5.49Z"></path>
    <path fill="#FAFAFA" d="M333.85,424.11h4.76c1.34,0,2.4.4,3.08,1.07.56.58.89,1.37.89,2.3v.03c0,1.76-1.05,2.81-2.53,3.24l2.88,4.04h-2.23l-2.63-3.72h-2.35v3.72h-1.88v-10.68ZM338.48,429.4c1.34,0,2.2-.7,2.2-1.79v-.03c0-1.14-.82-1.77-2.21-1.77h-2.73v3.59h2.75Z"></path>
    <path fill="#FAFAFA" d="M346.03,429.48v-.03c0-3.01,2.32-5.53,5.6-5.53s5.57,2.49,5.57,5.5v.03c0,3.01-2.32,5.53-5.6,5.53s-5.57-2.49-5.57-5.49ZM355.24,429.48v-.03c0-2.08-1.51-3.79-3.63-3.79s-3.6,1.68-3.6,3.75v.03c0,2.08,1.51,3.79,3.63,3.79s3.6-1.68,3.6-3.75Z"></path>
    <path fill="#FAFAFA" d="M360.66,430.26v-6.15h1.88v6.07c0,1.98,1.02,3.04,2.7,3.04s2.69-.99,2.69-2.96v-6.15h1.88v6.06c0,3.19-1.8,4.79-4.59,4.79s-4.55-1.6-4.55-4.7Z"></path>
    <path fill="#FAFAFA" d="M373.25,424.11h4.21c2.5,0,4.06,1.42,4.06,3.57v.03c0,2.4-1.92,3.65-4.27,3.65h-2.12v3.43h-1.88v-10.68ZM377.31,429.66c1.42,0,2.31-.79,2.31-1.91v-.03c0-1.25-.9-1.91-2.31-1.91h-2.18v3.85h2.18Z"></path>
  </g>
  <g>
    <path fill="#FAFAFA" d="M117.68,304.67h38.23c22.71,0,36.84,12.88,36.84,32.41v.28c0,21.75-17.45,33.1-38.78,33.1h-19.25v31.16h-17.04v-96.95ZM154.52,355.09c12.88,0,20.91-7.2,20.91-17.31v-.28c0-11.36-8.17-17.31-20.91-17.31h-19.81v34.9h19.81Z"></path>
    <path fill="#FAFAFA" d="M202.3,387.5l10.25-12.19c9.28,8.03,18.7,12.6,30.61,12.6,10.53,0,17.17-4.99,17.17-12.19v-.28c0-6.93-3.88-10.67-21.88-14.82-20.64-4.99-32.27-11.08-32.27-28.95v-.28c0-16.62,13.85-28.12,33.1-28.12,14.13,0,25.35,4.29,35.18,12.19l-9.14,12.88c-8.73-6.51-17.45-9.97-26.32-9.97-9.97,0-15.79,5.12-15.79,11.5v.28c0,7.48,4.43,10.8,23.13,15.24,20.5,4.99,31.02,12.33,31.02,28.39v.28c0,18.14-14.27,28.95-34.63,28.95-14.82,0-28.81-5.12-40.44-15.51Z"></path>
    <path fill="#FAFAFA" d="M290.8,353.43v-.28c0-27.15,20.78-50.14,50-50.14,16.9,0,27.29,4.71,37.26,13.16l-10.8,12.88c-7.48-6.23-14.82-10.25-27.15-10.25-17.87,0-31.44,15.51-31.44,34.07v.28c0,19.94,13.16,34.63,32.96,34.63,9.14,0,17.45-2.91,23.41-7.34v-18.01h-24.79v-14.96h41.27v40.72c-9.56,8.17-23.27,15.1-40.44,15.1-30.33,0-50.28-21.61-50.28-49.86Z"></path>
  </g>
  <g>
    <path fill="#B8483E" d="M266.04,268.96c11.57-16.55,7.55-31.85-2.67-42.07-18.08-18.08-41.24-25.63-62.85-39.94-29.07-19.25-38.79-34.58-26.55-75.62-.82,18.26,9.17,29.99,30.19,43.6,20.99,13.59,63.18,34.32,74.54,51.52,12.36,18.72,2.83,47.78-12.66,62.51Z"></path>
    <path fill="#B8483E" d="M249.55,279.03h0c8.11-10.06-3.51-24.04-12.76-30.06-6.74-4.38-24.57-12.93-42.69-21.93s-27.92-24.49-20.13-51.99c1.57,11.24,8.75,15.37,18.84,22.06,22.2,14.72,53.18,24.38,67.07,42.87,6.54,8.71,4.11,25.47-10.32,39.04Z"></path>
    <path fill="#B8483E" d="M301.08,147.6c6.69-4.31,19.9-6.63,29.32-2.73-1.31-8.51-8.35-22.45-28.45-27.82-1.55-.41-2.86-1.43-3.61-2.85-3.82-7.19-7.79-10.84-15.25-15.45-19.94-12.31-46.64-5.21-68.73-9.21-8.23-1.49-19.97-3.75-27.64-9.84-4.99-3.96-6.97-9.8-7.71-15.32-3.25,6.66-23.45,50.93,51.26,89.34,30.81,15.84,48.83,26.94,62.02,48.44,8.9,14.52,7.37,38.09-9.85,57.71,0,0,52.94-32.9,18.56-89.33-5.72-9.39-12.4-14.91.09-22.95ZM264.67,114.68c2.14-2.61,15.19-1.34,18.96,0,3.35,1.19,6.86,3.19,7.49,5.03-7.35,10.2-22.23-5.62-26.45-5.03Z"></path>
  </g>
</svg>