<?xml version="1.0"?>
<svg id="a" data-name="Layer 1" xmlns="http://www.w3.org/2000/svg" viewBox="0 0 500 300">
  <defs>
    
  </defs>
  <g>
    <path fill="#FAFAFA" d="M183.48,101.45h38.23c22.71,0,36.84,12.88,36.84,32.41v.28c0,21.75-17.45,33.1-38.78,33.1h-19.25v31.16h-17.04v-96.95ZM220.32,151.87c12.88,0,20.91-7.2,20.91-17.31v-.28c0-11.36-8.17-17.31-20.91-17.31h-19.81v34.9h19.81Z"></path>
    <path fill="#FAFAFA" d="M268.1,184.28l10.25-12.19c9.28,8.03,18.7,12.6,30.61,12.6,10.53,0,17.17-4.99,17.17-12.19v-.28c0-6.93-3.88-10.67-21.88-14.82-20.64-4.99-32.27-11.08-32.27-28.95v-.28c0-16.62,13.85-28.12,33.1-28.12,14.13,0,25.35,4.29,35.18,12.19l-9.14,12.88c-8.73-6.51-17.45-9.97-26.32-9.97-9.97,0-15.79,5.12-15.79,11.5v.28c0,7.48,4.43,10.8,23.13,15.24,20.5,4.99,31.02,12.33,31.02,28.39v.28c0,18.14-14.27,28.95-34.63,28.95-14.82,0-28.81-5.12-40.44-15.51Z"></path>
    <path fill="#FAFAFA" d="M356.6,150.21v-.28c0-27.15,20.78-50.14,50-50.14,16.9,0,27.29,4.71,37.26,13.16l-10.8,12.88c-7.48-6.23-14.82-10.25-27.15-10.25-17.87,0-31.44,15.51-31.44,34.07v.28c0,19.94,13.16,34.63,32.96,34.63,9.14,0,17.45-2.91,23.41-7.34v-18.01h-24.79v-14.96h41.27v40.72c-9.56,8.17-23.27,15.1-40.44,15.1-30.33,0-50.28-21.61-50.28-49.86Z"></path>
  </g>
  <g>
    <path fill="#B8483E" d="M115.38,204.23c7.46-10.67,4.87-20.54-1.72-27.13-11.66-11.66-26.59-16.53-40.53-25.75-18.74-12.41-25.01-22.3-17.12-48.76-.53,11.77,5.91,19.34,19.47,28.11,13.53,8.76,40.74,22.13,48.06,33.22,7.97,12.07,1.83,30.81-8.16,40.31Z"></path>
    <path fill="#B8483E" d="M104.75,210.72h0c5.23-6.49-2.26-15.5-8.23-19.38-4.34-2.83-15.84-8.34-27.53-14.14-11.69-5.8-18.01-15.79-12.98-33.52,1.01,7.25,5.64,9.91,12.15,14.22,14.31,9.49,34.29,15.72,43.25,27.64,4.22,5.61,2.65,16.42-6.66,25.17Z"></path>
    <path fill="#B8483E" d="M137.97,125.97c4.32-2.78,12.83-4.27,18.91-1.76-.85-5.49-5.38-14.47-18.34-17.94-1-.27-1.85-.92-2.33-1.84-2.46-4.64-5.02-6.99-9.83-9.96-12.86-7.94-30.07-3.36-44.32-5.94-5.31-.96-12.88-2.42-17.82-6.35-3.22-2.56-4.49-6.32-4.97-9.88-2.09,4.29-15.12,32.84,33.05,57.61,19.87,10.21,31.49,17.37,39.99,31.24,5.74,9.36,4.75,24.56-6.35,37.21,0,0,34.14-21.22,11.97-57.6-3.69-6.05-8-9.61.06-14.8ZM114.5,104.75c1.38-1.68,9.79-.86,12.23,0,2.16.77,4.42,2.06,4.83,3.24-4.74,6.58-14.34-3.63-17.05-3.24Z"></path>
  </g>
</svg>