<?xml version="1.0"?>
<svg id="a" data-name="Layer 1" xmlns="http://www.w3.org/2000/svg" viewBox="0 0 500 500">
  <defs>
    <style>
      .b { fill: #FAFAFA; }
      .c { fill: #B8483E; }
    </style>
  </defs>
  <rect width="500" height="500" fill="#1E3A52"></rect>
  <g>
    <path class="b" d="M121.07,320.84h38.23c22.71,0,36.84,12.88,36.84,32.41v.28c0,21.75-17.45,33.1-38.78,33.1h-19.25v31.16h-17.04v-96.95ZM157.91,371.26c12.88,0,20.91-7.2,20.91-17.31v-.28c0-11.36-8.17-17.31-20.91-17.31h-19.81v34.9h19.81Z"></path>
    <path class="b" d="M205.69,403.67l10.25-12.19c9.28,8.03,18.7,12.6,30.61,12.6,10.53,0,17.17-4.99,17.17-12.19v-.28c0-6.93-3.88-10.67-21.88-14.82-20.64-4.99-32.27-11.08-32.27-28.95v-.28c0-16.62,13.85-28.12,33.1-28.12,14.13,0,25.35,4.29,35.18,12.19l-9.14,12.88c-8.73-6.51-17.45-9.97-26.32-9.97-9.97,0-15.79,5.12-15.79,11.5v.28c0,7.48,4.43,10.8,23.13,15.24,20.5,4.99,31.02,12.33,31.02,28.39v.28c0,18.14-14.27,28.95-34.63,28.95-14.82,0-28.81-5.12-40.44-15.51Z"></path>
    <path class="b" d="M294.19,369.59v-.28c0-27.15,20.78-50.14,50-50.14,16.9,0,27.29,4.71,37.26,13.16l-10.8,12.88c-7.48-6.23-14.82-10.25-27.15-10.25-17.87,0-31.44,15.51-31.44,34.07v.28c0,19.94,13.16,34.63,32.96,34.63,9.14,0,17.45-2.91,23.41-7.34v-18.01h-24.79v-14.96h41.27v40.72c-9.56,8.17-23.27,15.1-40.44,15.1-30.33,0-50.28-21.61-50.28-49.86Z"></path>
  </g>
  <g>
    <path class="c" d="M269.43,285.13c11.57-16.55,7.55-31.85-2.67-42.07-18.08-18.08-41.24-25.63-62.85-39.94-29.07-19.25-38.79-34.58-26.55-75.62-.82,18.26,9.17,29.99,30.19,43.6,20.99,13.59,63.18,34.32,74.54,51.52,12.36,18.72,2.83,47.78-12.66,62.51Z"></path>
    <path class="c" d="M252.95,295.19h0c8.11-10.06-3.51-24.04-12.76-30.06-6.74-4.38-24.57-12.93-42.69-21.93-18.12-9-27.92-24.49-20.13-51.99,1.57,11.24,8.75,15.37,18.84,22.06,22.2,14.72,53.18,24.38,67.07,42.87,6.54,8.71,4.11,25.47-10.32,39.04Z"></path>
    <path class="c" d="M304.48,163.76c6.69-4.31,19.9-6.63,29.32-2.73-1.31-8.51-8.35-22.45-28.45-27.82-1.55-.41-2.86-1.43-3.61-2.85-3.82-7.19-7.79-10.84-15.25-15.45-19.94-12.31-46.64-5.21-68.73-9.21-8.23-1.49-19.97-3.75-27.64-9.84-4.99-3.96-6.97-9.8-7.71-15.32-3.25,6.66-23.45,50.93,51.26,89.34,30.81,15.84,48.83,26.94,62.02,48.44,8.9,14.52,7.37,38.09-9.85,57.71,0,0,52.94-32.9,18.56-89.33-5.72-9.39-12.4-14.91.09-22.95ZM268.07,130.85c2.14-2.61,15.19-1.34,18.96,0,3.35,1.19,6.86,3.19,7.49,5.03-7.35,10.2-22.23-5.62-26.45-5.03Z"></path>
  </g>
</svg>