<?xml version="1.0" encoding="UTF-8"?>
<svg id="a" data-name="Layer 1" xmlns="http://www.w3.org/2000/svg" viewBox="0 0 2874.01 1033.87">
  <defs>
    
  </defs>
  <rect x="1190.16" y="533.87" width="500" height="500"></rect>
  <rect y="533.87" width="500" height="500"></rect>
  <rect x="596.58" y="533.87" width="500" height="500"></rect>
  <rect x="2374.01" y="533.87" width="500" height="500"></rect>
  <g>
    <path class="d" d="M2650.98,943.42c18.98-27.15,12.39-52.25-4.37-69.01-29.66-29.65-67.66-42.05-103.1-65.52-47.68-31.57-63.63-56.73-43.55-124.05-1.35,29.95,15.04,49.2,49.52,71.52,34.43,22.29,103.64,56.3,122.27,84.52,20.27,30.71,4.65,78.38-20.77,102.54Z"></path>
    <path class="d" d="M2623.94,959.93h0c13.31-16.51-5.75-39.44-20.94-49.31-11.05-7.19-40.31-21.21-70.03-35.97-29.73-14.76-45.81-40.18-33.01-85.28,2.57,18.44,14.35,25.21,30.9,36.18,36.41,24.14,87.24,40,110.02,70.32,10.73,14.28,6.75,41.78-16.94,64.05Z"></path>
    <path class="d" d="M2708.46,744.33c10.98-7.06,32.64-10.87,48.1-4.47-2.15-13.96-13.7-36.82-46.67-45.63-2.54-.68-4.69-2.35-5.93-4.67-6.27-11.8-12.77-17.79-25.02-25.35-32.71-20.19-76.5-8.55-112.75-15.11-13.51-2.44-32.76-6.15-45.34-16.15-8.19-6.5-11.43-16.07-12.65-25.13-5.33,10.93-38.47,83.55,84.09,146.56,50.54,25.98,80.1,44.19,101.74,79.47,14.6,23.81,12.08,62.49-16.16,94.66,0,0,86.84-53.97,30.44-146.53-9.38-15.4-20.34-24.46.14-37.64ZM2648.74,690.34c3.52-4.27,24.92-2.19,31.11,0,5.5,1.95,11.25,5.23,12.28,8.25-12.06,16.74-36.47-9.22-43.38-8.25Z"></path>
  </g>
  <rect x="1780.76" y="533.87" width="500" height="500"></rect>
  <g>
    <g>
      <path class="b" d="M1308.24,958.31h4.21c2.5,0,4.06,1.42,4.06,3.57v.03c0,2.4-1.92,3.65-4.27,3.65h-2.12v3.43h-1.88v-10.68ZM1312.3,963.86c1.42,0,2.3-.79,2.3-1.91v-.03c0-1.25-.9-1.91-2.3-1.91h-2.18v3.85h2.18Z"></path>
      <path class="b" d="M1319.96,958.31h1.88v4.44h5.1v-4.44h1.88v10.68h-1.88v-4.5h-5.1v4.5h-1.88v-10.68Z"></path>
      <path class="b" d="M1332.27,963.68v-.03c0-3.01,2.32-5.53,5.6-5.53s5.57,2.49,5.57,5.5v.03c0,3.01-2.32,5.53-5.6,5.53s-5.57-2.49-5.57-5.49ZM1341.47,963.68v-.03c0-2.08-1.51-3.79-3.63-3.79s-3.6,1.68-3.6,3.75v.03c0,2.08,1.51,3.79,3.63,3.79s3.6-1.68,3.6-3.75Z"></path>
      <path class="b" d="M1346.89,958.31h7.92v1.68h-6.04v2.78h5.36v1.69h-5.36v2.85h6.12v1.68h-8v-10.68Z"></path>
      <path class="b" d="M1358.33,958.31h1.74l5.72,7.39v-7.39h1.85v10.68h-1.57l-5.89-7.6v7.6h-1.85v-10.68Z"></path>
      <path class="b" d="M1372.82,958.31h1.88v10.68h-1.88v-10.68Z"></path>
      <path class="b" d="M1387.99,958.31l-3.72,5.22,3.88,5.46h-2.21l-2.82-4.08-2.81,4.08h-2.15l3.86-5.43-3.71-5.25h2.21l2.64,3.86,2.69-3.86h2.15Z"></path>
      <path class="b" d="M1398.06,967.43l1.13-1.34c1.02.88,2.06,1.39,3.37,1.39,1.16,0,1.89-.55,1.89-1.34v-.03c0-.76-.43-1.18-2.41-1.63-2.27-.55-3.56-1.22-3.56-3.19v-.03c0-1.83,1.53-3.1,3.65-3.1,1.56,0,2.79.47,3.88,1.34l-1.01,1.42c-.96-.72-1.92-1.1-2.9-1.1-1.1,0-1.74.56-1.74,1.27v.03c0,.82.49,1.19,2.55,1.68,2.26.55,3.42,1.36,3.42,3.13v.03c0,2-1.57,3.19-3.82,3.19-1.63,0-3.17-.56-4.46-1.71Z"></path>
      <path class="b" d="M1409.78,963.68v-.03c0-3.01,2.32-5.53,5.6-5.53s5.57,2.49,5.57,5.5v.03c0,3.01-2.32,5.53-5.6,5.53s-5.57-2.49-5.57-5.49ZM1418.99,963.68v-.03c0-2.08-1.51-3.79-3.63-3.79s-3.6,1.68-3.6,3.75v.03c0,2.08,1.51,3.79,3.63,3.79s3.6-1.68,3.6-3.75Z"></path>
      <path class="b" d="M1424.4,958.31h1.88v8.97h5.62v1.71h-7.49v-10.68Z"></path>
      <path class="b" d="M1435.35,964.46v-6.15h1.88v6.07c0,1.98,1.02,3.04,2.7,3.04s2.69-.99,2.69-2.96v-6.15h1.88v6.06c0,3.19-1.8,4.79-4.59,4.79s-4.55-1.6-4.55-4.7Z"></path>
      <path class="b" d="M1451.34,960.05h-3.4v-1.74h8.69v1.74h-3.4v8.94h-1.88v-8.94Z"></path>
      <path class="b" d="M1460.07,958.31h1.88v10.68h-1.88v-10.68Z"></path>
      <path class="b" d="M1465.4,963.68v-.03c0-3.01,2.32-5.53,5.6-5.53s5.57,2.49,5.57,5.5v.03c0,3.01-2.32,5.53-5.6,5.53s-5.57-2.49-5.57-5.49ZM1474.6,963.68v-.03c0-2.08-1.51-3.79-3.63-3.79s-3.6,1.68-3.6,3.75v.03c0,2.08,1.51,3.79,3.63,3.79s3.6-1.68,3.6-3.75Z"></path>
      <path class="b" d="M1480.02,958.31h1.74l5.72,7.39v-7.39h1.85v10.68h-1.57l-5.89-7.6v7.6h-1.85v-10.68Z"></path>
      <path class="b" d="M1492.35,967.43l1.13-1.34c1.02.88,2.06,1.39,3.37,1.39,1.16,0,1.89-.55,1.89-1.34v-.03c0-.76-.43-1.18-2.41-1.63-2.27-.55-3.56-1.22-3.56-3.19v-.03c0-1.83,1.53-3.1,3.65-3.1,1.56,0,2.79.47,3.88,1.34l-1.01,1.42c-.96-.72-1.92-1.1-2.9-1.1-1.1,0-1.74.56-1.74,1.27v.03c0,.82.49,1.19,2.55,1.68,2.26.55,3.42,1.36,3.42,3.13v.03c0,2-1.57,3.19-3.82,3.19-1.63,0-3.17-.56-4.46-1.71Z"></path>
      <path class="b" d="M1510.97,963.68v-.03c0-2.99,2.29-5.53,5.51-5.53,1.86,0,3.01.52,4.11,1.45l-1.19,1.42c-.82-.69-1.63-1.13-2.99-1.13-1.97,0-3.46,1.71-3.46,3.75v.03c0,2.2,1.45,3.82,3.63,3.82,1.01,0,1.92-.32,2.58-.81v-1.98h-2.73v-1.65h4.55v4.49c-1.05.9-2.56,1.66-4.46,1.66-3.34,0-5.54-2.38-5.54-5.49Z"></path>
      <path class="b" d="M1524.42,958.31h4.76c1.34,0,2.4.4,3.08,1.07.56.58.89,1.37.89,2.3v.03c0,1.76-1.05,2.81-2.53,3.24l2.88,4.04h-2.23l-2.63-3.72h-2.35v3.72h-1.88v-10.68ZM1529.04,963.6c1.34,0,2.2-.7,2.2-1.79v-.03c0-1.14-.82-1.77-2.21-1.77h-2.73v3.59h2.75Z"></path>
      <path class="b" d="M1536.6,963.68v-.03c0-3.01,2.32-5.53,5.6-5.53s5.57,2.49,5.57,5.5v.03c0,3.01-2.32,5.53-5.6,5.53s-5.57-2.49-5.57-5.49ZM1545.8,963.68v-.03c0-2.08-1.51-3.79-3.63-3.79s-3.6,1.68-3.6,3.75v.03c0,2.08,1.51,3.79,3.63,3.79s3.6-1.68,3.6-3.75Z"></path>
      <path class="b" d="M1551.22,964.46v-6.15h1.88v6.07c0,1.98,1.02,3.04,2.7,3.04s2.69-.99,2.69-2.96v-6.15h1.88v6.06c0,3.19-1.8,4.79-4.59,4.79s-4.55-1.6-4.55-4.7Z"></path>
      <path class="b" d="M1563.81,958.31h4.21c2.5,0,4.06,1.42,4.06,3.57v.03c0,2.4-1.92,3.65-4.27,3.65h-2.12v3.43h-1.88v-10.68ZM1567.87,963.86c1.42,0,2.31-.79,2.31-1.91v-.03c0-1.25-.9-1.91-2.31-1.91h-2.18v3.85h2.18Z"></path>
    </g>
    <g>
      <path class="b" d="M1308.24,838.87h38.23c22.71,0,36.84,12.88,36.84,32.41v.28c0,21.75-17.45,33.1-38.78,33.1h-19.25v31.16h-17.04v-96.95ZM1345.08,889.29c12.88,0,20.91-7.2,20.91-17.31v-.28c0-11.36-8.17-17.31-20.91-17.31h-19.81v34.9h19.81Z"></path>
      <path class="b" d="M1392.86,921.7l10.25-12.19c9.28,8.03,18.7,12.6,30.61,12.6,10.53,0,17.17-4.99,17.17-12.19v-.28c0-6.93-3.88-10.67-21.88-14.82-20.64-4.99-32.27-11.08-32.27-28.95v-.28c0-16.62,13.85-28.12,33.1-28.12,14.13,0,25.35,4.29,35.18,12.19l-9.14,12.88c-8.73-6.51-17.45-9.97-26.32-9.97-9.97,0-15.79,5.12-15.79,11.5v.28c0,7.48,4.43,10.8,23.13,15.24,20.5,4.99,31.02,12.33,31.02,28.39v.28c0,18.14-14.27,28.95-34.63,28.95-14.82,0-28.81-5.12-40.44-15.51Z"></path>
      <path class="b" d="M1481.37,887.62v-.28c0-27.15,20.78-50.14,50-50.14,16.9,0,27.29,4.71,37.26,13.16l-10.8,12.88c-7.48-6.23-14.82-10.25-27.15-10.25-17.87,0-31.44,15.51-31.44,34.07v.28c0,19.94,13.16,34.63,32.96,34.63,9.14,0,17.45-2.91,23.41-7.34v-18.01h-24.79v-14.96h41.27v40.72c-9.56,8.17-23.27,15.1-40.44,15.1-30.33,0-50.28-21.61-50.28-49.86Z"></path>
    </g>
    <g>
      <path class="d" d="M1456.6,803.16c11.57-16.55,7.55-31.85-2.67-42.07-18.08-18.08-41.24-25.63-62.85-39.94-29.07-19.25-38.79-34.58-26.55-75.62-.82,18.26,9.17,29.99,30.19,43.6,20.99,13.59,63.18,34.32,74.54,51.52,12.36,18.72,2.83,47.78-12.66,62.51Z"></path>
      <path class="d" d="M1440.12,813.22h0c8.11-10.06-3.51-24.04-12.76-30.06-6.74-4.38-24.57-12.93-42.69-21.93s-27.92-24.49-20.13-51.99c1.57,11.24,8.75,15.37,18.84,22.06,22.2,14.72,53.18,24.38,67.07,42.87,6.54,8.71,4.11,25.47-10.32,39.04Z"></path>
      <path class="d" d="M1491.65,681.79c6.69-4.31,19.9-6.63,29.32-2.73-1.31-8.51-8.35-22.45-28.45-27.82-1.55-.41-2.86-1.43-3.61-2.85-3.82-7.19-7.79-10.84-15.25-15.45-19.94-12.31-46.64-5.21-68.73-9.21-8.23-1.49-19.97-3.75-27.64-9.84-4.99-3.96-6.97-9.8-7.71-15.32-3.25,6.66-23.45,50.93,51.26,89.34,30.81,15.84,48.83,26.94,62.02,48.44,8.9,14.52,7.37,38.09-9.85,57.71,0,0,52.94-32.9,18.56-89.33-5.72-9.39-12.4-14.91.09-22.95ZM1455.24,648.88c2.14-2.61,15.19-1.34,18.96,0,3.35,1.19,6.86,3.19,7.49,5.03-7.35,10.2-22.23-5.62-26.45-5.03Z"></path>
    </g>
  </g>
  <g>
    <g>
      <path class="c" d="M1308.24,359.73h4.21c2.5,0,4.06,1.42,4.06,3.57v.03c0,2.4-1.92,3.65-4.27,3.65h-2.12v3.43h-1.88v-10.68ZM1312.3,365.29c1.42,0,2.3-.79,2.3-1.91v-.03c0-1.25-.9-1.91-2.3-1.91h-2.18v3.85h2.18Z"></path>
      <path class="c" d="M1319.96,359.73h1.88v4.44h5.1v-4.44h1.88v10.68h-1.88v-4.5h-5.1v4.5h-1.88v-10.68Z"></path>
      <path class="c" d="M1332.27,365.1v-.03c0-3.01,2.32-5.53,5.6-5.53s5.57,2.49,5.57,5.5v.03c0,3.01-2.32,5.53-5.6,5.53s-5.57-2.49-5.57-5.49ZM1341.47,365.1v-.03c0-2.08-1.51-3.79-3.63-3.79s-3.6,1.68-3.6,3.75v.03c0,2.08,1.51,3.79,3.63,3.79s3.6-1.68,3.6-3.75Z"></path>
      <path class="c" d="M1346.89,359.73h7.92v1.68h-6.04v2.78h5.36v1.69h-5.36v2.85h6.12v1.68h-8v-10.68Z"></path>
      <path class="c" d="M1358.33,359.73h1.74l5.72,7.39v-7.39h1.85v10.68h-1.57l-5.89-7.6v7.6h-1.85v-10.68Z"></path>
      <path class="c" d="M1372.82,359.73h1.88v10.68h-1.88v-10.68Z"></path>
      <path class="c" d="M1387.99,359.73l-3.72,5.22,3.88,5.46h-2.21l-2.82-4.08-2.81,4.08h-2.15l3.86-5.43-3.71-5.25h2.21l2.64,3.86,2.69-3.86h2.15Z"></path>
      <path class="c" d="M1398.06,368.86l1.13-1.34c1.02.88,2.06,1.39,3.37,1.39,1.16,0,1.89-.55,1.89-1.34v-.03c0-.76-.43-1.18-2.41-1.63-2.27-.55-3.56-1.22-3.56-3.19v-.03c0-1.83,1.53-3.1,3.65-3.1,1.56,0,2.79.47,3.88,1.34l-1.01,1.42c-.96-.72-1.92-1.1-2.9-1.1-1.1,0-1.74.56-1.74,1.27v.03c0,.82.49,1.19,2.55,1.68,2.26.55,3.42,1.36,3.42,3.13v.03c0,2-1.57,3.19-3.82,3.19-1.63,0-3.17-.56-4.46-1.71Z"></path>
      <path class="c" d="M1409.78,365.1v-.03c0-3.01,2.32-5.53,5.6-5.53s5.57,2.49,5.57,5.5v.03c0,3.01-2.32,5.53-5.6,5.53s-5.57-2.49-5.57-5.49ZM1418.99,365.1v-.03c0-2.08-1.51-3.79-3.63-3.79s-3.6,1.68-3.6,3.75v.03c0,2.08,1.51,3.79,3.63,3.79s3.6-1.68,3.6-3.75Z"></path>
      <path class="c" d="M1424.4,359.73h1.88v8.97h5.62v1.71h-7.49v-10.68Z"></path>
      <path class="c" d="M1435.35,365.88v-6.15h1.88v6.07c0,1.98,1.02,3.04,2.7,3.04s2.69-.99,2.69-2.96v-6.15h1.88v6.06c0,3.19-1.8,4.79-4.59,4.79s-4.55-1.6-4.55-4.7Z"></path>
      <path class="c" d="M1451.34,361.47h-3.4v-1.74h8.69v1.74h-3.4v8.94h-1.88v-8.94Z"></path>
      <path class="c" d="M1460.07,359.73h1.88v10.68h-1.88v-10.68Z"></path>
      <path class="c" d="M1465.4,365.1v-.03c0-3.01,2.32-5.53,5.6-5.53s5.57,2.49,5.57,5.5v.03c0,3.01-2.32,5.53-5.6,5.53s-5.57-2.49-5.57-5.49ZM1474.6,365.1v-.03c0-2.08-1.51-3.79-3.63-3.79s-3.6,1.68-3.6,3.75v.03c0,2.08,1.51,3.79,3.63,3.79s3.6-1.68,3.6-3.75Z"></path>
      <path class="c" d="M1480.02,359.73h1.74l5.72,7.39v-7.39h1.85v10.68h-1.57l-5.89-7.6v7.6h-1.85v-10.68Z"></path>
      <path class="c" d="M1492.35,368.86l1.13-1.34c1.02.88,2.06,1.39,3.37,1.39,1.16,0,1.89-.55,1.89-1.34v-.03c0-.76-.43-1.18-2.41-1.63-2.27-.55-3.56-1.22-3.56-3.19v-.03c0-1.83,1.53-3.1,3.65-3.1,1.56,0,2.79.47,3.88,1.34l-1.01,1.42c-.96-.72-1.92-1.1-2.9-1.1-1.1,0-1.74.56-1.74,1.27v.03c0,.82.49,1.19,2.55,1.68,2.26.55,3.42,1.36,3.42,3.13v.03c0,2-1.57,3.19-3.82,3.19-1.63,0-3.17-.56-4.46-1.71Z"></path>
      <path class="c" d="M1510.97,365.1v-.03c0-2.99,2.29-5.53,5.51-5.53,1.86,0,3.01.52,4.11,1.45l-1.19,1.42c-.82-.69-1.63-1.13-2.99-1.13-1.97,0-3.46,1.71-3.46,3.75v.03c0,2.2,1.45,3.82,3.63,3.82,1.01,0,1.92-.32,2.58-.81v-1.98h-2.73v-1.65h4.55v4.49c-1.05.9-2.56,1.66-4.46,1.66-3.34,0-5.54-2.38-5.54-5.49Z"></path>
      <path class="c" d="M1524.42,359.73h4.76c1.34,0,2.4.4,3.08,1.07.56.58.89,1.37.89,2.3v.03c0,1.76-1.05,2.81-2.53,3.24l2.88,4.04h-2.23l-2.63-3.72h-2.35v3.72h-1.88v-10.68ZM1529.04,365.03c1.34,0,2.2-.7,2.2-1.79v-.03c0-1.14-.82-1.77-2.21-1.77h-2.73v3.59h2.75Z"></path>
      <path class="c" d="M1536.6,365.1v-.03c0-3.01,2.32-5.53,5.6-5.53s5.57,2.49,5.57,5.5v.03c0,3.01-2.32,5.53-5.6,5.53s-5.57-2.49-5.57-5.49ZM1545.8,365.1v-.03c0-2.08-1.51-3.79-3.63-3.79s-3.6,1.68-3.6,3.75v.03c0,2.08,1.51,3.79,3.63,3.79s3.6-1.68,3.6-3.75Z"></path>
      <path class="c" d="M1551.22,365.88v-6.15h1.88v6.07c0,1.98,1.02,3.04,2.7,3.04s2.69-.99,2.69-2.96v-6.15h1.88v6.06c0,3.19-1.8,4.79-4.59,4.79s-4.55-1.6-4.55-4.7Z"></path>
      <path class="c" d="M1563.81,359.73h4.21c2.5,0,4.06,1.42,4.06,3.57v.03c0,2.4-1.92,3.65-4.27,3.65h-2.12v3.43h-1.88v-10.68ZM1567.87,365.29c1.42,0,2.31-.79,2.31-1.91v-.03c0-1.25-.9-1.91-2.31-1.91h-2.18v3.85h2.18Z"></path>
    </g>
    <g>
      <path class="c" d="M1308.24,240.3h38.23c22.71,0,36.84,12.88,36.84,32.41v.28c0,21.75-17.45,33.1-38.78,33.1h-19.25v31.16h-17.04v-96.95ZM1345.08,290.71c12.88,0,20.91-7.2,20.91-17.31v-.28c0-11.36-8.17-17.31-20.91-17.31h-19.81v34.9h19.81Z"></path>
      <path class="c" d="M1392.86,323.12l10.25-12.19c9.28,8.03,18.7,12.6,30.61,12.6,10.53,0,17.17-4.99,17.17-12.19v-.28c0-6.93-3.88-10.67-21.88-14.82-20.64-4.99-32.27-11.08-32.27-28.95v-.28c0-16.62,13.85-28.12,33.1-28.12,14.13,0,25.35,4.29,35.18,12.19l-9.14,12.88c-8.73-6.51-17.45-9.97-26.32-9.97-9.97,0-15.79,5.12-15.79,11.5v.28c0,7.48,4.43,10.8,23.13,15.24,20.5,4.99,31.02,12.33,31.02,28.39v.28c0,18.14-14.27,28.95-34.63,28.95-14.82,0-28.81-5.12-40.44-15.51Z"></path>
      <path class="c" d="M1481.37,289.05v-.28c0-27.15,20.78-50.14,50-50.14,16.9,0,27.29,4.71,37.26,13.16l-10.8,12.88c-7.48-6.23-14.82-10.25-27.15-10.25-17.87,0-31.44,15.51-31.44,34.07v.28c0,19.94,13.16,34.63,32.96,34.63,9.14,0,17.45-2.91,23.41-7.34v-18.01h-24.79v-14.96h41.27v40.72c-9.56,8.17-23.27,15.1-40.44,15.1-30.33,0-50.28-21.61-50.28-49.86Z"></path>
    </g>
    <g>
      <path class="d" d="M1456.6,204.59c11.57-16.55,7.55-31.85-2.67-42.07-18.08-18.08-41.24-25.63-62.85-39.94-29.07-19.25-38.79-34.58-26.55-75.62-.82,18.26,9.17,29.99,30.19,43.6,20.99,13.59,63.18,34.32,74.54,51.52,12.36,18.72,2.83,47.78-12.66,62.51Z"></path>
      <path class="d" d="M1440.12,214.65h0c8.11-10.06-3.51-24.04-12.76-30.06-6.74-4.38-24.57-12.93-42.69-21.93-18.12-9-27.92-24.49-20.13-51.99,1.57,11.24,8.75,15.37,18.84,22.06,22.2,14.72,53.18,24.38,67.07,42.87,6.54,8.71,4.11,25.47-10.32,39.04Z"></path>
      <path class="d" d="M1491.65,83.22c6.69-4.31,19.9-6.63,29.32-2.73-1.31-8.51-8.35-22.45-28.45-27.82-1.55-.41-2.86-1.43-3.61-2.85-3.82-7.19-7.79-10.84-15.25-15.45-19.94-12.31-46.64-5.21-68.73-9.21-8.23-1.49-19.97-3.75-27.64-9.84-4.99-3.96-6.97-9.8-7.71-15.32-3.25,6.66-23.45,50.93,51.26,89.34,30.81,15.84,48.83,26.94,62.02,48.44,8.9,14.52,7.37,38.09-9.85,57.71,0,0,52.94-32.9,18.56-89.33-5.72-9.39-12.4-14.91.09-22.95ZM1455.24,50.31c2.14-2.61,15.19-1.34,18.96,0,3.35,1.19,6.86,3.19,7.49,5.03-7.35,10.2-22.23-5.62-26.45-5.03Z"></path>
    </g>
  </g>
  <g>
    <g>
      <path class="b" d="M780.06,743.81h38.23c22.71,0,36.84,12.88,36.84,32.41v.28c0,21.75-17.45,33.1-38.78,33.1h-19.25v31.16h-17.04v-96.95ZM816.9,794.23c12.88,0,20.91-7.2,20.91-17.31v-.28c0-11.36-8.17-17.31-20.91-17.31h-19.81v34.9h19.81Z"></path>
      <path class="b" d="M864.68,826.64l10.25-12.19c9.28,8.03,18.7,12.6,30.61,12.6,10.53,0,17.17-4.99,17.17-12.19v-.28c0-6.93-3.88-10.67-21.88-14.82-20.64-4.99-32.27-11.08-32.27-28.95v-.28c0-16.62,13.85-28.12,33.1-28.12,14.13,0,25.35,4.29,35.18,12.19l-9.14,12.88c-8.73-6.51-17.45-9.97-26.32-9.97-9.97,0-15.79,5.12-15.79,11.5v.28c0,7.48,4.43,10.8,23.13,15.24,20.5,4.99,31.02,12.33,31.02,28.39v.28c0,18.14-14.27,28.95-34.63,28.95-14.82,0-28.81-5.12-40.44-15.51Z"></path>
      <path class="b" d="M953.18,792.57v-.28c0-27.15,20.78-50.14,50-50.14,16.9,0,27.29,4.71,37.26,13.16l-10.8,12.88c-7.48-6.23-14.82-10.25-27.15-10.25-17.87,0-31.44,15.51-31.44,34.07v.28c0,19.94,13.16,34.63,32.96,34.63,9.14,0,17.45-2.91,23.41-7.34v-18.01h-24.79v-14.96h41.27v40.72c-9.56,8.17-23.27,15.1-40.44,15.1-30.33,0-50.28-21.61-50.28-49.86Z"></path>
    </g>
    <g>
      <path class="d" d="M711.96,846.59c7.46-10.67,4.87-20.54-1.72-27.13-11.66-11.66-26.59-16.53-40.53-25.75-18.74-12.41-25.01-22.3-17.12-48.76-.53,11.77,5.91,19.34,19.47,28.11,13.53,8.76,40.74,22.13,48.06,33.22,7.97,12.07,1.83,30.81-8.16,40.31Z"></path>
      <path class="d" d="M701.33,853.08h0c5.23-6.49-2.26-15.5-8.23-19.38-4.34-2.83-15.84-8.34-27.53-14.14-11.69-5.8-18.01-15.79-12.98-33.52,1.01,7.25,5.64,9.91,12.15,14.22,14.31,9.49,34.29,15.72,43.25,27.64,4.22,5.61,2.65,16.42-6.66,25.17Z"></path>
      <path class="d" d="M734.55,768.33c4.32-2.78,12.83-4.27,18.91-1.76-.85-5.49-5.38-14.47-18.34-17.94-1-.27-1.85-.92-2.33-1.84-2.46-4.64-5.02-6.99-9.83-9.96-12.86-7.94-30.07-3.36-44.32-5.94-5.31-.96-12.88-2.42-17.82-6.35-3.22-2.56-4.49-6.32-4.97-9.88-2.09,4.29-15.12,32.84,33.05,57.61,19.87,10.21,31.49,17.37,39.99,31.24,5.74,9.36,4.75,24.56-6.35,37.21,0,0,34.14-21.22,11.97-57.6-3.69-6.05-8-9.61.06-14.8ZM711.07,747.11c1.38-1.68,9.79-.86,12.23,0,2.16.77,4.42,2.06,4.83,3.24-4.74,6.58-14.34-3.63-17.05-3.24Z"></path>
    </g>
  </g>
  <g>
    <path class="d" d="M2650.98,344.85c18.98-27.15,12.39-52.25-4.37-69.01-29.66-29.65-67.66-42.05-103.1-65.52-47.68-31.57-63.63-56.73-43.55-124.05-1.35,29.95,15.04,49.2,49.52,71.52,34.43,22.29,103.64,56.3,122.27,84.52,20.27,30.71,4.65,78.38-20.77,102.54Z"></path>
    <path class="d" d="M2623.94,361.35h0c13.31-16.51-5.75-39.44-20.94-49.31-11.05-7.19-40.31-21.21-70.03-35.97-29.73-14.76-45.81-40.18-33.01-85.28,2.57,18.44,14.35,25.21,30.9,36.18,36.41,24.14,87.24,40,110.02,70.32,10.73,14.28,6.75,41.78-16.94,64.05Z"></path>
    <path class="d" d="M2708.46,145.76c10.98-7.06,32.64-10.87,48.1-4.47-2.15-13.96-13.7-36.82-46.67-45.63-2.54-.68-4.69-2.35-5.93-4.67-6.27-11.8-12.77-17.79-25.02-25.35-32.71-20.19-76.5-8.55-112.75-15.11-13.51-2.44-32.76-6.15-45.34-16.15-8.19-6.5-11.43-16.07-12.65-25.13-5.33,10.93-38.47,83.55,84.09,146.56,50.54,25.98,80.1,44.19,101.74,79.47,14.6,23.81,12.08,62.49-16.16,94.66,0,0,86.84-53.97,30.44-146.53-9.38-15.4-20.34-24.46.14-37.64ZM2648.74,91.77c3.52-4.27,24.92-2.19,31.11,0,5.5,1.95,11.25,5.23,12.28,8.25-12.06,16.74-36.47-9.22-43.38-8.25Z"></path>
  </g>
  <g>
    <g>
      <path class="c" d="M780.06,145.24h38.23c22.71,0,36.84,12.88,36.84,32.41v.28c0,21.75-17.45,33.1-38.78,33.1h-19.25v31.16h-17.04v-96.95ZM816.9,195.65c12.88,0,20.91-7.2,20.91-17.31v-.28c0-11.36-8.17-17.31-20.91-17.31h-19.81v34.9h19.81Z"></path>
      <path class="c" d="M864.68,228.07l10.25-12.19c9.28,8.03,18.7,12.6,30.61,12.6,10.53,0,17.17-4.99,17.17-12.19v-.28c0-6.93-3.88-10.67-21.88-14.82-20.64-4.99-32.27-11.08-32.27-28.95v-.28c0-16.62,13.85-28.12,33.1-28.12,14.13,0,25.35,4.29,35.18,12.19l-9.14,12.88c-8.73-6.51-17.45-9.97-26.32-9.97-9.97,0-15.79,5.12-15.79,11.5v.28c0,7.48,4.43,10.8,23.13,15.24,20.5,4.99,31.02,12.33,31.02,28.39v.28c0,18.14-14.27,28.95-34.63,28.95-14.82,0-28.81-5.12-40.44-15.51Z"></path>
      <path class="c" d="M953.18,193.99v-.28c0-27.15,20.78-50.14,50-50.14,16.9,0,27.29,4.71,37.26,13.16l-10.8,12.88c-7.48-6.23-14.82-10.25-27.15-10.25-17.87,0-31.44,15.51-31.44,34.07v.28c0,19.94,13.16,34.63,32.96,34.63,9.14,0,17.45-2.91,23.41-7.34v-18.01h-24.79v-14.96h41.27v40.72c-9.56,8.17-23.27,15.1-40.44,15.1-30.33,0-50.28-21.61-50.28-49.86Z"></path>
    </g>
    <g>
      <path class="d" d="M711.96,248.01c7.46-10.67,4.87-20.54-1.72-27.13-11.66-11.66-26.59-16.53-40.53-25.75-18.74-12.41-25.01-22.3-17.12-48.76-.53,11.77,5.91,19.34,19.47,28.11,13.53,8.76,40.74,22.13,48.06,33.22,7.97,12.07,1.83,30.81-8.16,40.31Z"></path>
      <path class="d" d="M701.33,254.5h0c5.23-6.49-2.26-15.5-8.23-19.38-4.34-2.83-15.84-8.34-27.53-14.14-11.69-5.8-18.01-15.79-12.98-33.52,1.01,7.25,5.64,9.91,12.15,14.22,14.31,9.49,34.29,15.72,43.25,27.64,4.22,5.61,2.65,16.42-6.66,25.17Z"></path>
      <path class="d" d="M734.55,169.76c4.32-2.78,12.83-4.27,18.91-1.76-.85-5.49-5.38-14.47-18.34-17.94-1-.27-1.85-.92-2.33-1.84-2.46-4.64-5.02-6.99-9.83-9.96-12.86-7.94-30.07-3.36-44.32-5.94-5.31-.96-12.88-2.42-17.82-6.35-3.22-2.56-4.49-6.32-4.97-9.88-2.09,4.29-15.12,32.84,33.05,57.61,19.87,10.21,31.49,17.37,39.99,31.24,5.74,9.36,4.75,24.56-6.35,37.21,0,0,34.14-21.22,11.97-57.6-3.69-6.05-8-9.61.06-14.8ZM711.07,148.54c1.38-1.68,9.79-.86,12.23,0,2.16.77,4.42,2.06,4.83,3.24-4.74,6.58-14.34-3.63-17.05-3.24Z"></path>
    </g>
  </g>
  <path class="b" d="M52.67,842.4h6.3c3.74,0,6.07,2.12,6.07,5.34v.05c0,3.58-2.88,5.46-6.39,5.46h-3.17v5.14h-2.81v-15.98ZM58.75,850.71c2.12,0,3.45-1.19,3.45-2.85v-.05c0-1.87-1.35-2.85-3.45-2.85h-3.26v5.75h3.26Z"></path>
  <path class="b" d="M70.21,842.4h2.81v6.64h7.63v-6.64h2.81v15.98h-2.81v-6.74h-7.63v6.74h-2.81v-15.98Z"></path>
  <path class="b" d="M88.61,850.44v-.05c0-4.5,3.47-8.27,8.38-8.27s8.33,3.72,8.33,8.22v.05c0,4.5-3.47,8.26-8.38,8.26s-8.33-3.72-8.33-8.22ZM102.38,850.44v-.05c0-3.11-2.26-5.66-5.43-5.66s-5.39,2.51-5.39,5.62v.05c0,3.11,2.26,5.66,5.43,5.66s5.39-2.51,5.39-5.62Z"></path>
  <path class="b" d="M110.48,842.4h11.85v2.51h-9.04v4.16h8.01v2.53h-8.01v4.27h9.16v2.51h-11.96v-15.98Z"></path>
  <path class="b" d="M127.6,842.4h2.6l8.56,11.05v-11.05h2.76v15.98h-2.35l-8.81-11.37v11.37h-2.76v-15.98Z"></path>
  <path class="b" d="M149.26,842.4h2.81v15.98h-2.81v-15.98Z"></path>
  <path class="b" d="M171.96,842.4l-5.57,7.81,5.8,8.17h-3.31l-4.22-6.1-4.2,6.1h-3.22l5.78-8.13-5.55-7.85h3.31l3.95,5.78,4.02-5.78h3.22Z"></path>
  <path class="b" d="M187.02,856.06l1.69-2.01c1.53,1.32,3.08,2.08,5.05,2.08,1.73,0,2.83-.82,2.83-2.01v-.05c0-1.14-.64-1.76-3.61-2.44-3.4-.82-5.32-1.83-5.32-4.77v-.05c0-2.74,2.28-4.63,5.46-4.63,2.33,0,4.18.71,5.8,2.01l-1.51,2.12c-1.44-1.07-2.88-1.64-4.34-1.64-1.64,0-2.6.84-2.6,1.89v.04c0,1.23.73,1.78,3.81,2.51,3.38.82,5.11,2.03,5.11,4.68v.04c0,2.99-2.35,4.77-5.71,4.77-2.44,0-4.75-.84-6.67-2.56Z"></path>
  <path class="b" d="M204.56,850.44v-.05c0-4.5,3.47-8.27,8.38-8.27s8.33,3.72,8.33,8.22v.05c0,4.5-3.47,8.26-8.38,8.26s-8.33-3.72-8.33-8.22ZM218.32,850.44v-.05c0-3.11-2.26-5.66-5.43-5.66s-5.39,2.51-5.39,5.62v.05c0,3.11,2.26,5.66,5.43,5.66s5.39-2.51,5.39-5.62Z"></path>
  <path class="b" d="M226.43,842.4h2.81v13.42h8.4v2.56h-11.21v-15.98Z"></path>
  <path class="b" d="M242.8,851.6v-9.2h2.81v9.09c0,2.97,1.53,4.54,4.04,4.54s4.02-1.48,4.02-4.43v-9.2h2.81v9.06c0,4.77-2.69,7.17-6.87,7.17s-6.8-2.4-6.8-7.03Z"></path>
  <path class="b" d="M266.72,845h-5.09v-2.6h12.99v2.6h-5.09v13.38h-2.81v-13.38Z"></path>
  <path class="b" d="M279.78,842.4h2.81v15.98h-2.81v-15.98Z"></path>
  <path class="b" d="M287.75,850.44v-.05c0-4.5,3.47-8.27,8.38-8.27s8.33,3.72,8.33,8.22v.05c0,4.5-3.47,8.26-8.38,8.26s-8.33-3.72-8.33-8.22ZM301.51,850.44v-.05c0-3.11-2.26-5.66-5.43-5.66s-5.39,2.51-5.39,5.62v.05c0,3.11,2.26,5.66,5.43,5.66s5.39-2.51,5.39-5.62Z"></path>
  <path class="b" d="M309.62,842.4h2.6l8.56,11.05v-11.05h2.76v15.98h-2.35l-8.81-11.37v11.37h-2.76v-15.98Z"></path>
  <path class="b" d="M328.06,856.06l1.69-2.01c1.53,1.32,3.08,2.08,5.05,2.08,1.73,0,2.83-.82,2.83-2.01v-.05c0-1.14-.64-1.76-3.61-2.44-3.4-.82-5.32-1.83-5.32-4.77v-.05c0-2.74,2.28-4.63,5.46-4.63,2.33,0,4.18.71,5.8,2.01l-1.51,2.12c-1.44-1.07-2.88-1.64-4.34-1.64-1.64,0-2.6.84-2.6,1.89v.04c0,1.23.73,1.78,3.81,2.51,3.38.82,5.11,2.03,5.11,4.68v.04c0,2.99-2.35,4.77-5.71,4.77-2.44,0-4.75-.84-6.67-2.56Z"></path>
  <path class="b" d="M355.91,850.44v-.05c0-4.48,3.42-8.27,8.24-8.27,2.79,0,4.5.78,6.14,2.17l-1.78,2.12c-1.23-1.03-2.44-1.69-4.48-1.69-2.94,0-5.18,2.56-5.18,5.62v.05c0,3.29,2.17,5.71,5.43,5.71,1.51,0,2.88-.48,3.86-1.21v-2.97h-4.09v-2.47h6.8v6.71c-1.57,1.35-3.84,2.49-6.67,2.49-5,0-8.29-3.56-8.29-8.22Z"></path>
  <path class="b" d="M376.02,842.4h7.12c2.01,0,3.58.59,4.61,1.6.84.87,1.32,2.06,1.32,3.45v.05c0,2.63-1.58,4.2-3.79,4.84l4.32,6.05h-3.33l-3.93-5.57h-3.52v5.57h-2.81v-15.98ZM382.94,850.32c2.01,0,3.29-1.05,3.29-2.67v-.05c0-1.71-1.23-2.65-3.31-2.65h-4.09v5.37h4.11Z"></path>
  <path class="b" d="M394.24,850.44v-.05c0-4.5,3.47-8.27,8.38-8.27s8.33,3.72,8.33,8.22v.05c0,4.5-3.47,8.26-8.38,8.26s-8.33-3.72-8.33-8.22ZM408.01,850.44v-.05c0-3.11-2.26-5.66-5.43-5.66s-5.39,2.51-5.39,5.62v.05c0,3.11,2.26,5.66,5.43,5.66s5.39-2.51,5.39-5.62Z"></path>
  <path class="b" d="M416.12,851.6v-9.2h2.81v9.09c0,2.97,1.53,4.54,4.04,4.54s4.02-1.48,4.02-4.43v-9.2h2.81v9.06c0,4.77-2.69,7.17-6.87,7.17s-6.8-2.4-6.8-7.03Z"></path>
  <path class="b" d="M434.95,842.4h6.3c3.74,0,6.07,2.12,6.07,5.34v.05c0,3.58-2.88,5.46-6.39,5.46h-3.17v5.14h-2.81v-15.98ZM441.02,850.71c2.12,0,3.45-1.19,3.45-2.85v-.05c0-1.87-1.35-2.85-3.45-2.85h-3.26v5.75h3.26Z"></path>
  <g>
    <path class="b" d="M183.48,714.23h38.23c22.71,0,36.84,12.88,36.84,32.41v.28c0,21.75-17.45,33.1-38.78,33.1h-19.25v31.16h-17.04v-96.95ZM220.32,764.65c12.88,0,20.91-7.2,20.91-17.31v-.28c0-11.36-8.17-17.31-20.91-17.31h-19.81v34.9h19.81Z"></path>
    <path class="b" d="M268.1,797.06l10.25-12.19c9.28,8.03,18.7,12.6,30.61,12.6,10.53,0,17.17-4.99,17.17-12.19v-.28c0-6.93-3.88-10.67-21.88-14.82-20.64-4.99-32.27-11.08-32.27-28.95v-.28c0-16.62,13.85-28.12,33.1-28.12,14.13,0,25.35,4.29,35.18,12.19l-9.14,12.88c-8.73-6.51-17.45-9.97-26.32-9.97-9.97,0-15.79,5.12-15.79,11.5v.28c0,7.48,4.43,10.8,23.13,15.24,20.5,4.99,31.02,12.33,31.02,28.39v.28c0,18.14-14.27,28.95-34.63,28.95-14.82,0-28.81-5.12-40.44-15.51Z"></path>
    <path class="b" d="M356.6,762.99v-.28c0-27.15,20.78-50.14,50-50.14,16.9,0,27.29,4.71,37.26,13.16l-10.8,12.88c-7.48-6.23-14.82-10.25-27.15-10.25-17.87,0-31.44,15.51-31.44,34.07v.28c0,19.94,13.16,34.63,32.96,34.63,9.14,0,17.45-2.91,23.41-7.34v-18.01h-24.79v-14.96h41.27v40.72c-9.56,8.17-23.27,15.1-40.44,15.1-30.33,0-50.28-21.61-50.28-49.86Z"></path>
  </g>
  <g>
    <path class="d" d="M115.38,817.01c7.46-10.67,4.87-20.54-1.72-27.13-11.66-11.66-26.59-16.53-40.53-25.75-18.74-12.41-25.01-22.3-17.12-48.76-.53,11.77,5.91,19.34,19.47,28.11,13.53,8.76,40.74,22.13,48.06,33.22,7.97,12.07,1.83,30.81-8.16,40.31Z"></path>
    <path class="d" d="M104.75,823.49h0c5.23-6.49-2.26-15.5-8.23-19.38-4.34-2.83-15.84-8.34-27.53-14.14-11.69-5.8-18.01-15.79-12.98-33.52,1.01,7.25,5.64,9.91,12.15,14.22,14.31,9.49,34.29,15.72,43.25,27.64,4.22,5.61,2.65,16.42-6.66,25.17Z"></path>
    <path class="d" d="M137.97,738.75c4.32-2.78,12.83-4.27,18.91-1.76-.85-5.49-5.38-14.47-18.34-17.94-1-.27-1.85-.92-2.33-1.84-2.46-4.64-5.02-6.99-9.83-9.96-12.86-7.94-30.07-3.36-44.32-5.94-5.31-.96-12.88-2.42-17.82-6.35-3.22-2.56-4.49-6.32-4.97-9.88-2.09,4.29-15.12,32.84,33.05,57.61,19.87,10.21,31.49,17.37,39.99,31.24,5.74,9.36,4.75,24.56-6.35,37.21,0,0,34.14-21.22,11.97-57.6-3.69-6.05-8-9.61.06-14.8ZM114.5,717.53c1.38-1.68,9.79-.86,12.23,0,2.16.77,4.42,2.06,4.83,3.24-4.74,6.58-14.34-3.63-17.05-3.24Z"></path>
  </g>
  <g>
    <path class="c" d="M52.67,243.83h6.3c3.74,0,6.07,2.12,6.07,5.34v.05c0,3.58-2.88,5.46-6.39,5.46h-3.17v5.14h-2.81v-15.98ZM58.75,252.14c2.12,0,3.45-1.19,3.45-2.85v-.05c0-1.87-1.35-2.85-3.45-2.85h-3.26v5.75h3.26Z"></path>
    <path class="c" d="M70.21,243.83h2.81v6.64h7.63v-6.64h2.81v15.98h-2.81v-6.74h-7.63v6.74h-2.81v-15.98Z"></path>
    <path class="c" d="M88.61,251.86v-.05c0-4.5,3.47-8.27,8.38-8.27s8.33,3.72,8.33,8.22v.05c0,4.5-3.47,8.26-8.38,8.26s-8.33-3.72-8.33-8.22ZM102.38,251.86v-.05c0-3.11-2.26-5.66-5.43-5.66s-5.39,2.51-5.39,5.62v.05c0,3.11,2.26,5.66,5.43,5.66s5.39-2.51,5.39-5.62Z"></path>
    <path class="c" d="M110.48,243.83h11.85v2.51h-9.04v4.16h8.01v2.53h-8.01v4.27h9.16v2.51h-11.96v-15.98Z"></path>
    <path class="c" d="M127.6,243.83h2.6l8.56,11.05v-11.05h2.76v15.98h-2.35l-8.81-11.37v11.37h-2.76v-15.98Z"></path>
    <path class="c" d="M149.26,243.83h2.81v15.98h-2.81v-15.98Z"></path>
    <path class="c" d="M171.96,243.83l-5.57,7.81,5.8,8.17h-3.31l-4.22-6.1-4.2,6.1h-3.22l5.78-8.13-5.55-7.85h3.31l3.95,5.78,4.02-5.78h3.22Z"></path>
    <path class="c" d="M187.02,257.48l1.69-2.01c1.53,1.32,3.08,2.08,5.05,2.08,1.73,0,2.83-.82,2.83-2.01v-.05c0-1.14-.64-1.76-3.61-2.44-3.4-.82-5.32-1.83-5.32-4.77v-.05c0-2.74,2.28-4.63,5.46-4.63,2.33,0,4.18.71,5.8,2.01l-1.51,2.12c-1.44-1.07-2.88-1.64-4.34-1.64-1.64,0-2.6.84-2.6,1.89v.04c0,1.23.73,1.78,3.81,2.51,3.38.82,5.11,2.03,5.11,4.68v.04c0,2.99-2.35,4.77-5.71,4.77-2.44,0-4.75-.84-6.67-2.56Z"></path>
    <path class="c" d="M204.56,251.86v-.05c0-4.5,3.47-8.27,8.38-8.27s8.33,3.72,8.33,8.22v.05c0,4.5-3.47,8.26-8.38,8.26s-8.33-3.72-8.33-8.22ZM218.32,251.86v-.05c0-3.11-2.26-5.66-5.43-5.66s-5.39,2.51-5.39,5.62v.05c0,3.11,2.26,5.66,5.43,5.66s5.39-2.51,5.39-5.62Z"></path>
    <path class="c" d="M226.43,243.83h2.81v13.42h8.4v2.56h-11.21v-15.98Z"></path>
    <path class="c" d="M242.8,253.03v-9.2h2.81v9.09c0,2.97,1.53,4.54,4.04,4.54s4.02-1.48,4.02-4.43v-9.2h2.81v9.06c0,4.77-2.69,7.17-6.87,7.17s-6.8-2.4-6.8-7.03Z"></path>
    <path class="c" d="M266.72,246.43h-5.09v-2.6h12.99v2.6h-5.09v13.38h-2.81v-13.38Z"></path>
    <path class="c" d="M279.78,243.83h2.81v15.98h-2.81v-15.98Z"></path>
    <path class="c" d="M287.75,251.86v-.05c0-4.5,3.47-8.27,8.38-8.27s8.33,3.72,8.33,8.22v.05c0,4.5-3.47,8.26-8.38,8.26s-8.33-3.72-8.33-8.22ZM301.51,251.86v-.05c0-3.11-2.26-5.66-5.43-5.66s-5.39,2.51-5.39,5.62v.05c0,3.11,2.26,5.66,5.43,5.66s5.39-2.51,5.39-5.62Z"></path>
    <path class="c" d="M309.62,243.83h2.6l8.56,11.05v-11.05h2.76v15.98h-2.35l-8.81-11.37v11.37h-2.76v-15.98Z"></path>
    <path class="c" d="M328.06,257.48l1.69-2.01c1.53,1.32,3.08,2.08,5.05,2.08,1.73,0,2.83-.82,2.83-2.01v-.05c0-1.14-.64-1.76-3.61-2.44-3.4-.82-5.32-1.83-5.32-4.77v-.05c0-2.74,2.28-4.63,5.46-4.63,2.33,0,4.18.71,5.8,2.01l-1.51,2.12c-1.44-1.07-2.88-1.64-4.34-1.64-1.64,0-2.6.84-2.6,1.89v.04c0,1.23.73,1.78,3.81,2.51,3.38.82,5.11,2.03,5.11,4.68v.04c0,2.99-2.35,4.77-5.71,4.77-2.44,0-4.75-.84-6.67-2.56Z"></path>
    <path class="c" d="M355.91,251.86v-.05c0-4.48,3.42-8.27,8.24-8.27,2.79,0,4.5.78,6.14,2.17l-1.78,2.12c-1.23-1.03-2.44-1.69-4.48-1.69-2.94,0-5.18,2.56-5.18,5.62v.05c0,3.29,2.17,5.71,5.43,5.71,1.51,0,2.88-.48,3.86-1.21v-2.97h-4.09v-2.47h6.8v6.71c-1.57,1.35-3.84,2.49-6.67,2.49-5,0-8.29-3.56-8.29-8.22Z"></path>
    <path class="c" d="M376.02,243.83h7.12c2.01,0,3.58.59,4.61,1.6.84.87,1.32,2.06,1.32,3.45v.05c0,2.63-1.58,4.2-3.79,4.84l4.32,6.05h-3.33l-3.93-5.57h-3.52v5.57h-2.81v-15.98ZM382.94,251.75c2.01,0,3.29-1.05,3.29-2.67v-.05c0-1.71-1.23-2.65-3.31-2.65h-4.09v5.37h4.11Z"></path>
    <path class="c" d="M394.24,251.86v-.05c0-4.5,3.47-8.27,8.38-8.27s8.33,3.72,8.33,8.22v.05c0,4.5-3.47,8.26-8.38,8.26s-8.33-3.72-8.33-8.22ZM408.01,251.86v-.05c0-3.11-2.26-5.66-5.43-5.66s-5.39,2.51-5.39,5.62v.05c0,3.11,2.26,5.66,5.43,5.66s5.39-2.51,5.39-5.62Z"></path>
    <path class="c" d="M416.12,253.03v-9.2h2.81v9.09c0,2.97,1.53,4.54,4.04,4.54s4.02-1.48,4.02-4.43v-9.2h2.81v9.06c0,4.77-2.69,7.17-6.87,7.17s-6.8-2.4-6.8-7.03Z"></path>
    <path class="c" d="M434.95,243.83h6.3c3.74,0,6.07,2.12,6.07,5.34v.05c0,3.58-2.88,5.46-6.39,5.46h-3.17v5.14h-2.81v-15.98ZM441.02,252.14c2.12,0,3.45-1.19,3.45-2.85v-.05c0-1.87-1.35-2.85-3.45-2.85h-3.26v5.75h3.26Z"></path>
    <g>
      <path class="c" d="M183.48,115.66h38.23c22.71,0,36.84,12.88,36.84,32.41v.28c0,21.75-17.45,33.1-38.78,33.1h-19.25v31.16h-17.04v-96.95ZM220.32,166.07c12.88,0,20.91-7.2,20.91-17.31v-.28c0-11.36-8.17-17.31-20.91-17.31h-19.81v34.9h19.81Z"></path>
      <path class="c" d="M268.1,198.48l10.25-12.19c9.28,8.03,18.7,12.6,30.61,12.6,10.53,0,17.17-4.99,17.17-12.19v-.28c0-6.93-3.88-10.67-21.88-14.82-20.64-4.99-32.27-11.08-32.27-28.95v-.28c0-16.62,13.85-28.12,33.1-28.12,14.13,0,25.35,4.29,35.18,12.19l-9.14,12.88c-8.73-6.51-17.45-9.97-26.32-9.97-9.97,0-15.79,5.12-15.79,11.5v.28c0,7.48,4.43,10.8,23.13,15.24,20.5,4.99,31.02,12.33,31.02,28.39v.28c0,18.14-14.27,28.95-34.63,28.95-14.82,0-28.81-5.12-40.44-15.51Z"></path>
      <path class="c" d="M356.6,164.41v-.28c0-27.15,20.78-50.14,50-50.14,16.9,0,27.29,4.71,37.26,13.16l-10.8,12.88c-7.48-6.23-14.82-10.25-27.15-10.25-17.87,0-31.44,15.51-31.44,34.07v.28c0,19.94,13.16,34.63,32.96,34.63,9.14,0,17.45-2.91,23.41-7.34v-18.01h-24.79v-14.96h41.27v40.72c-9.56,8.17-23.27,15.1-40.44,15.1-30.33,0-50.28-21.61-50.28-49.86Z"></path>
    </g>
    <g>
      <path class="d" d="M115.38,218.43c7.46-10.67,4.87-20.54-1.72-27.13-11.66-11.66-26.59-16.53-40.53-25.75-18.74-12.41-25.01-22.3-17.12-48.76-.53,11.77,5.91,19.34,19.47,28.11,13.53,8.76,40.74,22.13,48.06,33.22,7.97,12.07,1.83,30.81-8.16,40.31Z"></path>
      <path class="d" d="M104.75,224.92h0c5.23-6.49-2.26-15.5-8.23-19.38-4.34-2.83-15.84-8.34-27.53-14.14-11.69-5.8-18.01-15.79-12.98-33.52,1.01,7.25,5.64,9.91,12.15,14.22,14.31,9.49,34.29,15.72,43.25,27.64,4.22,5.61,2.65,16.42-6.66,25.17Z"></path>
      <path class="d" d="M137.97,140.18c4.32-2.78,12.83-4.27,18.91-1.76-.85-5.49-5.38-14.47-18.34-17.94-1-.27-1.85-.92-2.33-1.84-2.46-4.64-5.02-6.99-9.83-9.96-12.86-7.94-30.07-3.36-44.32-5.94-5.31-.96-12.88-2.42-17.82-6.35-3.22-2.56-4.49-6.32-4.97-9.88-2.09,4.29-15.12,32.84,33.05,57.61,19.87,10.21,31.49,17.37,39.99,31.24,5.74,9.36,4.75,24.56-6.35,37.21,0,0,34.14-21.22,11.97-57.6-3.69-6.05-8-9.61.06-14.8ZM114.5,118.95c1.38-1.68,9.79-.86,12.23,0,2.16.77,4.42,2.06,4.83,3.24-4.74,6.58-14.34-3.63-17.05-3.24Z"></path>
    </g>
  </g>
  <g>
    <g>
      <path class="b" d="M1901.83,854.71h38.23c22.71,0,36.84,12.88,36.84,32.41v.28c0,21.75-17.45,33.1-38.78,33.1h-19.25v31.16h-17.04v-96.95ZM1938.67,905.13c12.88,0,20.91-7.2,20.91-17.31v-.28c0-11.36-8.17-17.31-20.91-17.31h-19.81v34.9h19.81Z"></path>
      <path class="b" d="M1986.45,937.54l10.25-12.19c9.28,8.03,18.7,12.6,30.61,12.6,10.53,0,17.17-4.99,17.17-12.19v-.28c0-6.93-3.88-10.67-21.88-14.82-20.64-4.99-32.27-11.08-32.27-28.95v-.28c0-16.62,13.85-28.12,33.1-28.12,14.13,0,25.35,4.29,35.18,12.19l-9.14,12.88c-8.73-6.51-17.45-9.97-26.32-9.97-9.97,0-15.79,5.12-15.79,11.5v.28c0,7.48,4.43,10.8,23.13,15.24,20.5,4.99,31.02,12.33,31.02,28.39v.28c0,18.14-14.27,28.95-34.63,28.95-14.82,0-28.81-5.12-40.44-15.51Z"></path>
      <path class="b" d="M2074.95,903.47v-.28c0-27.15,20.78-50.14,50-50.14,16.9,0,27.29,4.71,37.26,13.16l-10.8,12.88c-7.48-6.23-14.82-10.25-27.15-10.25-17.87,0-31.44,15.51-31.44,34.07v.28c0,19.94,13.16,34.63,32.96,34.63,9.14,0,17.45-2.91,23.41-7.34v-18.01h-24.79v-14.96h41.27v40.72c-9.56,8.17-23.27,15.1-40.44,15.1-30.33,0-50.28-21.61-50.28-49.86Z"></path>
    </g>
    <g>
      <path class="d" d="M2050.19,819.01c11.57-16.55,7.55-31.85-2.67-42.07-18.08-18.08-41.24-25.63-62.85-39.94-29.07-19.25-38.79-34.58-26.55-75.62-.82,18.26,9.17,29.99,30.19,43.6,20.99,13.59,63.18,34.32,74.54,51.52,12.36,18.72,2.83,47.78-12.66,62.51Z"></path>
      <path class="d" d="M2033.71,829.07h0c8.11-10.06-3.51-24.04-12.76-30.06-6.74-4.38-24.57-12.93-42.69-21.93-18.12-9-27.92-24.49-20.13-51.99,1.57,11.24,8.75,15.37,18.84,22.06,22.2,14.72,53.18,24.38,67.07,42.87,6.54,8.71,4.11,25.47-10.32,39.04Z"></path>
      <path class="d" d="M2085.23,697.64c6.69-4.31,19.9-6.63,29.32-2.73-1.31-8.51-8.35-22.45-28.45-27.82-1.55-.41-2.86-1.43-3.61-2.85-3.82-7.19-7.79-10.84-15.25-15.45-19.94-12.31-46.64-5.21-68.73-9.21-8.23-1.49-19.97-3.75-27.64-9.84-4.99-3.96-6.97-9.8-7.71-15.32-3.25,6.66-23.45,50.93,51.26,89.34,30.81,15.84,48.83,26.94,62.02,48.44,8.9,14.52,7.37,38.09-9.85,57.71,0,0,52.94-32.9,18.56-89.33-5.72-9.39-12.4-14.91.09-22.95ZM2048.82,664.73c2.14-2.61,15.19-1.34,18.96,0,3.35,1.19,6.86,3.19,7.49,5.03-7.35,10.2-22.23-5.62-26.45-5.03Z"></path>
    </g>
  </g>
  <g>
    <g>
      <path class="c" d="M1901.83,256.14h38.23c22.71,0,36.84,12.88,36.84,32.41v.28c0,21.75-17.45,33.1-38.78,33.1h-19.25v31.16h-17.04v-96.95ZM1938.67,306.56c12.88,0,20.91-7.2,20.91-17.31v-.28c0-11.36-8.17-17.31-20.91-17.31h-19.81v34.9h19.81Z"></path>
      <path class="c" d="M1986.45,338.97l10.25-12.19c9.28,8.03,18.7,12.6,30.61,12.6,10.53,0,17.17-4.99,17.17-12.19v-.28c0-6.93-3.88-10.67-21.88-14.82-20.64-4.99-32.27-11.08-32.27-28.95v-.28c0-16.62,13.85-28.12,33.1-28.12,14.13,0,25.35,4.29,35.18,12.19l-9.14,12.88c-8.73-6.51-17.45-9.97-26.32-9.97-9.97,0-15.79,5.12-15.79,11.5v.28c0,7.48,4.43,10.8,23.13,15.24,20.5,4.99,31.02,12.33,31.02,28.39v.28c0,18.14-14.27,28.95-34.63,28.95-14.82,0-28.81-5.12-40.44-15.51Z"></path>
      <path class="c" d="M2074.95,304.89v-.28c0-27.15,20.78-50.14,50-50.14,16.9,0,27.29,4.71,37.26,13.16l-10.8,12.88c-7.48-6.23-14.82-10.25-27.15-10.25-17.87,0-31.44,15.51-31.44,34.07v.28c0,19.94,13.16,34.63,32.96,34.63,9.14,0,17.45-2.91,23.41-7.34v-18.01h-24.79v-14.96h41.27v40.72c-9.56,8.17-23.27,15.1-40.44,15.1-30.33,0-50.28-21.61-50.28-49.86Z"></path>
    </g>
    <g>
      <path class="d" d="M2050.19,220.43c11.57-16.55,7.55-31.85-2.67-42.07-18.08-18.08-41.24-25.63-62.85-39.94-29.07-19.25-38.79-34.58-26.55-75.62-.82,18.26,9.17,29.99,30.19,43.6,20.99,13.59,63.18,34.32,74.54,51.52,12.36,18.72,2.83,47.78-12.66,62.51Z"></path>
      <path class="d" d="M2033.71,230.49h0c8.11-10.06-3.51-24.04-12.76-30.06-6.74-4.38-24.57-12.93-42.69-21.93-18.12-9-27.92-24.49-20.13-51.99,1.57,11.24,8.75,15.37,18.84,22.06,22.2,14.72,53.18,24.38,67.07,42.87,6.54,8.71,4.11,25.47-10.32,39.04Z"></path>
      <path class="d" d="M2085.23,99.06c6.69-4.31,19.9-6.63,29.32-2.73-1.31-8.51-8.35-22.45-28.45-27.82-1.55-.41-2.86-1.43-3.61-2.85-3.82-7.19-7.79-10.84-15.25-15.45-19.94-12.31-46.64-5.21-68.73-9.21-8.23-1.49-19.97-3.75-27.64-9.84-4.99-3.96-6.97-9.8-7.71-15.32-3.25,6.66-23.45,50.93,51.26,89.34,30.81,15.84,48.83,26.94,62.02,48.44,8.9,14.52,7.37,38.09-9.85,57.71,0,0,52.94-32.9,18.56-89.33-5.72-9.39-12.4-14.91.09-22.95ZM2048.82,66.15c2.14-2.61,15.19-1.34,18.96,0,3.35,1.19,6.86,3.19,7.49,5.03-7.35,10.2-22.23-5.62-26.45-5.03Z"></path>
    </g>
  </g>
</svg>