<?xml version="1.0" encoding="UTF-8"?>
<svg role="img" aria-label="Phoenix Solutions Group" xmlns="http://www.w3.org/2000/svg" viewBox="0 0 394.65 173.57">
  <defs>
    
  </defs>
  <g>
    <path fill="#FAFAFA" d="M0,157.31h6.3c3.74,0,6.07,2.12,6.07,5.34v.05c0,3.58-2.88,5.46-6.39,5.46h-3.17v5.14H0v-15.98ZM6.07,165.62c2.12,0,3.45-1.19,3.45-2.85v-.05c0-1.87-1.35-2.85-3.45-2.85h-3.26v5.75h3.26Z"></path>
    <path fill="#FAFAFA" d="M17.53,157.31h2.81v6.64h7.63v-6.64h2.81v15.98h-2.81v-6.74h-7.63v6.74h-2.81v-15.98Z"></path>
    <path fill="#FAFAFA" d="M35.93,165.35v-.05c0-4.5,3.47-8.27,8.38-8.27s8.33,3.72,8.33,8.22v.05c0,4.5-3.47,8.26-8.38,8.26s-8.33-3.72-8.33-8.22ZM49.7,165.35v-.05c0-3.11-2.26-5.66-5.43-5.66s-5.39,2.51-5.39,5.62v.05c0,3.11,2.26,5.66,5.43,5.66s5.39-2.51,5.39-5.62Z"></path>
    <path fill="#FAFAFA" d="M57.8,157.31h11.85v2.51h-9.04v4.16h8.01v2.53h-8.01v4.27h9.16v2.51h-11.96v-15.98Z"></path>
    <path fill="#FAFAFA" d="M74.93,157.31h2.6l8.56,11.05v-11.05h2.76v15.98h-2.35l-8.81-11.37v11.37h-2.76v-15.98Z"></path>
    <path fill="#FAFAFA" d="M96.59,157.31h2.81v15.98h-2.81v-15.98Z"></path>
    <path fill="#FAFAFA" d="M119.28,157.31l-5.57,7.81,5.8,8.17h-3.31l-4.22-6.1-4.2,6.1h-3.22l5.78-8.13-5.55-7.85h3.31l3.95,5.78,4.02-5.78h3.22Z"></path>
    <path fill="#FAFAFA" d="M134.35,170.97l1.69-2.01c1.53,1.32,3.08,2.08,5.05,2.08,1.73,0,2.83-.82,2.83-2.01v-.05c0-1.14-.64-1.76-3.61-2.44-3.4-.82-5.32-1.83-5.32-4.77v-.05c0-2.74,2.28-4.63,5.46-4.63,2.33,0,4.18.71,5.8,2.01l-1.51,2.12c-1.44-1.07-2.88-1.64-4.34-1.64-1.64,0-2.6.84-2.6,1.89v.04c0,1.23.73,1.78,3.81,2.51,3.38.82,5.11,2.03,5.11,4.68v.04c0,2.99-2.35,4.77-5.71,4.77-2.44,0-4.75-.84-6.67-2.56Z"></path>
    <path fill="#FAFAFA" d="M151.88,165.35v-.05c0-4.5,3.47-8.27,8.38-8.27s8.33,3.72,8.33,8.22v.05c0,4.5-3.47,8.26-8.38,8.26s-8.33-3.72-8.33-8.22ZM165.65,165.35v-.05c0-3.11-2.26-5.66-5.43-5.66s-5.39,2.51-5.39,5.62v.05c0,3.11,2.26,5.66,5.43,5.66s5.39-2.51,5.39-5.62Z"></path>
    <path fill="#FAFAFA" d="M173.75,157.31h2.81v13.42h8.4v2.56h-11.21v-15.98Z"></path>
    <path fill="#FAFAFA" d="M190.12,166.51v-9.2h2.81v9.09c0,2.97,1.53,4.54,4.04,4.54s4.02-1.48,4.02-4.43v-9.2h2.81v9.06c0,4.77-2.69,7.17-6.87,7.17s-6.8-2.4-6.8-7.03Z"></path>
    <path fill="#FAFAFA" d="M214.05,159.91h-5.09v-2.6h12.99v2.6h-5.09v13.38h-2.81v-13.38Z"></path>
    <path fill="#FAFAFA" d="M227.1,157.31h2.81v15.98h-2.81v-15.98Z"></path>
    <path fill="#FAFAFA" d="M235.07,165.35v-.05c0-4.5,3.47-8.27,8.38-8.27s8.33,3.72,8.33,8.22v.05c0,4.5-3.47,8.26-8.38,8.26s-8.33-3.72-8.33-8.22ZM248.84,165.35v-.05c0-3.11-2.26-5.66-5.43-5.66s-5.39,2.51-5.39,5.62v.05c0,3.11,2.26,5.66,5.43,5.66s5.39-2.51,5.39-5.62Z"></path>
    <path fill="#FAFAFA" d="M256.94,157.31h2.6l8.56,11.05v-11.05h2.76v15.98h-2.35l-8.81-11.37v11.37h-2.76v-15.98Z"></path>
    <path fill="#FAFAFA" d="M275.38,170.97l1.69-2.01c1.53,1.32,3.08,2.08,5.05,2.08,1.73,0,2.83-.82,2.83-2.01v-.05c0-1.14-.64-1.76-3.61-2.44-3.4-.82-5.32-1.83-5.32-4.77v-.05c0-2.74,2.28-4.63,5.46-4.63,2.33,0,4.18.71,5.8,2.01l-1.51,2.12c-1.44-1.07-2.88-1.64-4.34-1.64-1.64,0-2.6.84-2.6,1.89v.04c0,1.23.73,1.78,3.81,2.51,3.38.82,5.11,2.03,5.11,4.68v.04c0,2.99-2.35,4.77-5.71,4.77-2.44,0-4.75-.84-6.67-2.56Z"></path>
    <path fill="#FAFAFA" d="M303.23,165.35v-.05c0-4.48,3.42-8.27,8.24-8.27,2.79,0,4.5.78,6.14,2.17l-1.78,2.12c-1.23-1.03-2.44-1.69-4.48-1.69-2.94,0-5.18,2.56-5.18,5.62v.05c0,3.29,2.17,5.71,5.43,5.71,1.51,0,2.88-.48,3.86-1.21v-2.97h-4.09v-2.47h6.8v6.71c-1.57,1.35-3.84,2.49-6.67,2.49-5,0-8.29-3.56-8.29-8.22Z"></path>
    <path fill="#FAFAFA" d="M323.35,157.31h7.12c2.01,0,3.58.59,4.61,1.6.84.87,1.32,2.06,1.32,3.45v.05c0,2.63-1.58,4.2-3.79,4.84l4.32,6.05h-3.33l-3.93-5.57h-3.52v5.57h-2.81v-15.98ZM330.26,165.24c2.01,0,3.29-1.05,3.29-2.67v-.05c0-1.71-1.23-2.65-3.31-2.65h-4.09v5.37h4.11Z"></path>
    <path fill="#FAFAFA" d="M341.57,165.35v-.05c0-4.5,3.47-8.27,8.38-8.27s8.33,3.72,8.33,8.22v.05c0,4.5-3.47,8.26-8.38,8.26s-8.33-3.72-8.33-8.22ZM355.34,165.35v-.05c0-3.11-2.26-5.66-5.43-5.66s-5.39,2.51-5.39,5.62v.05c0,3.11,2.26,5.66,5.43,5.66s5.39-2.51,5.39-5.62Z"></path>
    <path fill="#FAFAFA" d="M363.44,166.51v-9.2h2.81v9.09c0,2.97,1.53,4.54,4.04,4.54s4.02-1.48,4.02-4.43v-9.2h2.81v9.06c0,4.77-2.69,7.17-6.87,7.17s-6.8-2.4-6.8-7.03Z"></path>
    <path fill="#FAFAFA" d="M382.27,157.31h6.3c3.74,0,6.07,2.12,6.07,5.34v.05c0,3.58-2.88,5.46-6.39,5.46h-3.17v5.14h-2.81v-15.98ZM388.35,165.62c2.12,0,3.45-1.19,3.45-2.85v-.05c0-1.87-1.35-2.85-3.45-2.85h-3.26v5.75h3.26Z"></path>
  </g>
  <g>
    <path fill="#FAFAFA" d="M130.81,29.14h38.23c22.71,0,36.84,12.88,36.84,32.41v.28c0,21.75-17.45,33.1-38.78,33.1h-19.25v31.16h-17.04V29.14ZM167.65,79.56c12.88,0,20.91-7.2,20.91-17.31v-.28c0-11.36-8.17-17.31-20.91-17.31h-19.81v34.9h19.81Z"></path>
    <path fill="#FAFAFA" d="M215.43,111.97l10.25-12.19c9.28,8.03,18.7,12.6,30.61,12.6,10.53,0,17.17-4.99,17.17-12.19v-.28c0-6.93-3.88-10.67-21.88-14.82-20.64-4.99-32.27-11.08-32.27-28.95v-.28c0-16.62,13.85-28.12,33.1-28.12,14.13,0,25.35,4.29,35.18,12.19l-9.14,12.88c-8.73-6.51-17.45-9.97-26.32-9.97-9.97,0-15.79,5.12-15.79,11.5v.28c0,7.48,4.43,10.8,23.13,15.24,20.5,4.99,31.02,12.33,31.02,28.39v.28c0,18.14-14.27,28.95-34.63,28.95-14.82,0-28.81-5.12-40.44-15.51Z"></path>
    <path fill="#FAFAFA" d="M303.93,77.9v-.28c0-27.15,20.78-50.14,50-50.14,16.9,0,27.29,4.71,37.26,13.16l-10.8,12.88c-7.48-6.23-14.82-10.25-27.15-10.25-17.87,0-31.44,15.51-31.44,34.07v.28c0,19.94,13.16,34.63,32.96,34.63,9.14,0,17.45-2.91,23.41-7.34v-18.01h-24.79v-14.96h41.27v40.72c-9.56,8.17-23.27,15.1-40.44,15.1-30.33,0-50.28-21.61-50.28-49.86Z"></path>
  </g>
  <g>
    <path fill="#B8483E" d="M62.7,131.92c7.46-10.67,4.87-20.54-1.72-27.13-11.66-11.66-26.59-16.53-40.53-25.75C1.71,66.63-4.56,56.74,3.34,30.28c-.53,11.77,5.91,19.34,19.47,28.11,13.53,8.76,40.74,22.13,48.06,33.22,7.97,12.07,1.83,30.81-8.16,40.31Z"></path>
    <path fill="#B8483E" d="M52.07,138.41h0c5.23-6.49-2.26-15.5-8.23-19.38-4.34-2.83-15.84-8.34-27.53-14.14-11.69-5.8-18.01-15.79-12.98-33.52,1.01,7.25,5.64,9.91,12.15,14.22,14.31,9.49,34.29,15.72,43.25,27.64,4.22,5.61,2.65,16.42-6.66,25.17Z"></path>
    <path fill="#B8483E" d="M85.3,53.66c4.32-2.78,12.83-4.27,18.91-1.76-.85-5.49-5.38-14.47-18.34-17.94-1-.27-1.85-.92-2.33-1.84-2.46-4.64-5.02-6.99-9.83-9.96-12.86-7.94-30.07-3.36-44.32-5.94-5.31-.96-12.88-2.42-17.82-6.35C8.34,7.32,7.06,3.56,6.58,0c-2.09,4.29-15.12,32.84,33.05,57.61,19.87,10.21,31.49,17.37,39.99,31.24,5.74,9.36,4.75,24.56-6.35,37.21,0,0,34.14-21.22,11.97-57.6-3.69-6.05-8-9.61.06-14.8ZM61.82,32.44c1.38-1.68,9.79-.86,12.23,0,2.16.77,4.42,2.06,4.83,3.24-4.74,6.58-14.34-3.63-17.05-3.24Z"></path>
  </g>
</svg>