<?xml version="1.0" encoding="UTF-8"?>
<svg id="Layer_1" xmlns="http://www.w3.org/2000/svg" xmlns:x="http://ns.adobe.com/Extensibility/1.0/" version="1.1" viewBox="0 0 264.6 73">
  <!-- Generator: Adobe Illustrator 30.1.0, SVG Export Plug-In . SVG Version: 2.1.1 Build 136)  -->
  <defs>
    <style>
      .st0 {
        fill: red;
      }
    </style>
  </defs>
  <path d="M10.3,2v10.3h4.7c.9.1,1.7-.2,2.4-.7.6-.8,1-1.8,1-2.9h.7v8.9h-.7c0-.8-.1-1.5-.4-2.2-.2-.5-.6-.8-1-1.1-.6-.3-1.3-.4-2-.4h-4.8v8.2c0,.9,0,1.8.2,2.6.2.4.5.7.8.8.5.3,1.2.5,1.8.5h1v.7H2.8v-.7h.9c.9.1,1.8-.3,2.3-.9.4-.9.6-2,.5-3V5.2c.1-.9,0-1.8-.3-2.6,0-.4-.3-.6-.7-.8-.5-.3-1.1-.5-1.7-.5h-1v-.7h19.5l.3,5.8h-.7c-.2-1-.6-1.9-1.2-2.7-.4-.6-1-1-1.6-1.2-1-.3-2-.4-3-.4h-5.8v-.1Z"/>
  <path d="M46.9,19.5l.6.1-2.2,7.1h-20.3v-.7h1c.9.1,1.8-.3,2.4-1.1.4-.9.5-1.9.4-2.9V5.2c0-1.6-.2-2.7-.5-3.1-.6-.6-1.4-.9-2.2-.8h-1v-.7h11.9v.7c-1-.1-2,.1-2.9.4-.5.2-.9.5-1.2,1-.3,1-.4,2-.3,2.9v16.4c0,.8.1,1.5.3,2.2.2.3.4.5.7.6,1,.2,2,.2,3,.2h1.9c1.4.1,2.9-.1,4.2-.4.9-.3,1.6-.9,2.2-1.6.8-1,1.5-2.2,2-3.5Z"/>
  <path d="M62.8,0c3.4,0,6.6,1.4,8.8,3.9,2.5,2.6,3.8,6.1,3.7,9.7.1,3.7-1.2,7.2-3.8,9.9-2.3,2.6-5.7,4-9.1,3.9-3.4.1-6.7-1.3-9.1-3.9-2.5-2.7-3.8-6.3-3.7-9.9,0-3.9,1.5-7.6,4.4-10.2,2.4-2.2,5.5-3.5,8.8-3.4ZM62.4,1.4c-2.2-.1-4.3.9-5.6,2.6-1.8,2.2-2.7,5.3-2.7,9.5s.9,7.6,2.7,9.9c1.3,1.7,3.4,2.7,5.6,2.6,2.4,0,4.6-1,6.1-2.9,1.6-1.9,2.4-4.9,2.4-9.1,0-4.5-.9-7.8-2.6-10-1.4-1.7-3.6-2.7-5.9-2.6Z"/>
  <path d="M113.9.6v.7c-.6,0-1.1.1-1.7.4-.5.3-.9.8-1.2,1.3-.5,1-.9,2.1-1.2,3.2l-7.3,21.1h-.8l-6-16.8-5.9,16.8h-.7l-7.8-21.7c-.6-1.6-.9-2.6-1.1-2.9-.2-.5-.6-.8-1.1-1.1-.6-.3-1.2-.4-1.8-.3v-.7h9.7v.7h-.4c-.6,0-1.1.1-1.6.5-.3.3-.5.7-.5,1.1.2,1.1.5,2.1.9,3.1l5.1,14.7,4.4-12.5-.8-2.2-.6-1.8c-.2-.6-.5-1.2-.9-1.7-.2-.2-.4-.5-.6-.6-.3-.2-.6-.4-1-.5s-.8-.1-1.2-.1v-.7h10.2v.7h-.7c-.6-.1-1.1.1-1.6.5-.3.3-.5.8-.5,1.2.1,1.2.4,2.3.9,3.4l5,14.2,5-14.4c.4-1.1.7-2.2.9-3.3,0-.3-.1-.6-.3-.8-.2-.3-.4-.4-.7-.5-.6-.2-1.3-.3-1.9-.3v-.7h7.8Z"/>
  <path d="M122.5,2v10.4h5.8c1,.1,2.1-.1,3-.7.8-.9,1.2-2,1.1-3.1h.7v9.1h-.7c-.1-.8-.3-1.7-.6-2.4-.3-.5-.6-.8-1.1-1.1-.8-.3-1.6-.4-2.4-.4h-5.8v8.6c0,.7,0,1.4.2,2.1.1.3.3.5.5.6.5.2,1,.3,1.5.2h4.4c1.1,0,2.2-.1,3.2-.3.7-.2,1.4-.7,1.9-1.2,1-1.1,1.8-2.3,2.4-3.6h.8l-2.3,6.6h-20.1v-.7h.9c.6,0,1.2-.1,1.8-.4.4-.2.7-.5.8-.9.2-.8.3-1.7.2-2.5V5.3c0-1.7-.2-2.7-.5-3.1-.6-.6-1.5-.9-2.3-.8h-.9v-.8h20.2l.3,5.7h-.8c-.1-1-.4-2-.9-2.8-.3-.5-.9-1-1.5-1.2-.9-.2-1.8-.3-2.7-.3h-7.1Z"/>
  <path d="M165.1,26.8h-7l-8.9-12.3h-2.7v7.6c0,1.6.2,2.7.5,3.1.6.6,1.4.9,2.2.9h1v.7h-11.2v-.8h1c.9.1,1.8-.3,2.4-1.1.4-.9.5-1.9.4-2.8V5.2c0-1.6-.2-2.7-.5-3.1-.6-.6-1.4-.9-2.2-.8h-1v-.7h9.6c2.1-.1,4.1.1,6.1.6,1.3.4,2.5,1.2,3.4,2.2.9,1.1,1.4,2.5,1.4,3.9,0,1.5-.5,3-1.6,4.2-1.3,1.3-3,2.2-4.9,2.5l5.4,7.5c.8,1.3,1.9,2.5,3.2,3.4,1.1.6,2.3,1,3.5,1.1l-.1.8ZM146.5,13.3h1.1c2,.1,4-.4,5.6-1.6,1.2-1,1.9-2.5,1.9-4.1.1-1.5-.5-2.9-1.5-4-1.1-1-2.6-1.6-4.1-1.5-1,0-2,.2-3,.4v10.8Z"/>
  <path d="M182.8,12.7h12.2v-7.4c0-.9,0-1.8-.2-2.6-.2-.4-.5-.7-.8-.8-.5-.3-1.1-.5-1.8-.5h-.9v-.8h11.2v.7h-.9c-.6,0-1.2.1-1.8.4-.4.2-.7.5-.8.9-.2.8-.3,1.7-.2,2.6v16.9c-.1.9,0,1.8.3,2.6.2.4.4.7.8.8.5.3,1.2.5,1.8.5h.9v.7h-11.2v-.7h.9c.9.1,1.7-.3,2.3-.9.4-.9.6-2,.5-3v-8h-12.2v8c-.1.9,0,1.8.2,2.6.2.4.5.7.8.8.5.3,1.1.5,1.8.5h1v.7h-11.3v-.7h.9c.9.1,1.8-.3,2.4-.9.4-.9.6-2,.5-3V5.3c.1-.9,0-1.8-.2-2.6-.2-.4-.4-.7-.8-.8-.5-.3-1.2-.5-1.8-.5h-.9v-.8h11.2v.7h-1c-.6,0-1.2.1-1.8.4-.4.2-.7.5-.8.9-.2.8-.3,1.7-.2,2.6l-.1,7.5Z"/>
  <path d="M215.4,26.1v.7h-11.2v-.7h.9c.9.1,1.8-.3,2.4-.9.4-.9.6-2,.5-3V5.2c.1-.9,0-1.8-.2-2.6-.2-.4-.4-.7-.8-.8-.5-.3-1.2-.5-1.8-.5h-.9v-.7h11.2v.7h-1c-.9-.1-1.8.3-2.3.9-.4.9-.6,2-.5,3v16.9c0,.9,0,1.8.2,2.6.2.4.5.7.8.8.5.3,1.1.5,1.8.5l.9.1Z"/>
  <path d="M239.1,19.5l.6.1-2.2,7.1h-20.3v-.7h1c.9.1,1.8-.3,2.4-1.1.4-.9.5-1.9.4-2.9V5.2c0-1.6-.2-2.7-.5-3.1-.6-.6-1.4-.9-2.2-.8h-1v-.7h11.7v.7c-1-.1-2,.1-2.9.4-.5.2-.9.5-1.1,1-.3,1-.4,2-.3,2.9v16.4c-.1.8.1,1.5.3,2.2.2.3.4.5.7.6,1,.2,2,.2,3,.2h2c1.4.1,2.9-.1,4.2-.4.9-.3,1.6-.9,2.2-1.6.8-1,1.5-2.2,2-3.5Z"/>
  <path d="M263.2,19.5l.6.1-2.2,7.1h-20.3v-.7h1c.9.1,1.8-.3,2.4-1.1.4-.9.5-1.9.4-2.9V5.2c0-1.6-.2-2.7-.5-3.1-.6-.6-1.4-.9-2.2-.8h-1v-.7h11.9v.7c-1-.1-2,.1-2.9.4-.5.2-.9.5-1.1,1-.3,1-.4,2-.3,2.9v16.4c-.1.8.1,1.5.3,2.2.2.3.4.5.7.6,1,.2,2,.2,3,.2h1.9c1.4.1,2.9-.1,4.2-.4.9-.3,1.6-.9,2.2-1.6.8-1,1.4-2.2,1.9-3.5Z"/>
  <path d="M23,63.6h-10.6l-1.9,4.1c-.4.7-.6,1.5-.7,2.3,0,.4.2.8.6,1.1.8.4,1.7.6,2.6.6v.7H4.4v-.7c.8-.1,1.6-.3,2.2-.8,1-1.1,1.8-2.4,2.3-3.8l9.7-21.6h.7l9.6,21.8c.5,1.3,1.2,2.4,2.1,3.4.8.6,1.7.9,2.6.9v.7h-10.9v-.7c.8,0,1.5-.1,2.2-.5.4-.2.6-.6.6-1.1-.1-.9-.4-1.8-.8-2.7l-1.7-3.7ZM22.5,62.2l-4.7-10.6-4.8,10.6h9.5Z"/>
  <path d="M53.8,46.9v-.7h9.7v.7h-1c-1,0-2,.5-2.5,1.3-.4.9-.5,1.8-.4,2.8v10.6c.1,2.1-.2,4.1-.8,6.1-.6,1.6-1.8,2.9-3.3,3.8-2,1.1-4.3,1.7-6.5,1.6-3,0-5.3-.5-6.8-1.5-1.5-.9-2.7-2.3-3.3-4-.5-2.1-.8-4.3-.6-6.4v-10.3c0-1.6-.2-2.7-.7-3.2-.6-.6-1.4-.8-2.3-.8h-1v-.7h11.9v.7h-1c-.9-.1-1.8.3-2.4,1-.4.9-.6,1.9-.5,2.9v11.4c0,1.2.1,2.3.3,3.5.1,1.1.5,2.1,1.1,3.1.6.8,1.3,1.4,2.2,1.8,1.1.5,2.3.8,3.6.7,1.7,0,3.3-.4,4.8-1.1,1.3-.6,2.3-1.6,2.9-2.9.6-1.9.9-3.9.8-5.9v-10.6c0-1.6-.2-2.7-.6-3.1-.6-.6-1.5-.9-2.4-.9l-1.2.1Z"/>
  <path d="M88,46.2l.3,6.1h-.8c-.1-.8-.3-1.6-.6-2.3-.4-.7-1-1.3-1.7-1.7-.9-.4-1.8-.6-2.8-.5h-3.9v20c0,1.6.2,2.6.6,3,.6.6,1.5.9,2.4.8h.9v.7h-11.5v-.7h1c.9.1,1.9-.3,2.5-1,.4-.9.5-1.9.4-2.8v-20h-3.3c-.9,0-1.8.1-2.7.3-.7.3-1.4.8-1.8,1.4-.5.8-.9,1.8-.9,2.8h-.8l.3-6.1h22.4Z"/>
  <path d="M103.8,45.6c3.5,0,6.8,1.4,9.3,3.9,2.6,2.5,4,6,3.9,9.7.1,3.7-1.4,7.3-4,9.9-5.3,5.2-13.8,5.3-19.1.1-2.6-2.7-4-6.3-3.9-10-.1-3.9,1.5-7.6,4.5-10.2,2.6-2.3,5.9-3.5,9.3-3.4ZM103.4,47c-2.3-.1-4.5.9-5.9,2.6-1.9,2.2-2.8,5.3-2.8,9.5s1,7.6,2.9,9.9c1.4,1.7,3.6,2.7,5.8,2.6,2.5.1,4.8-1,6.4-2.9,1.7-1.9,2.5-4.9,2.5-9.1,0-4.5-.9-7.8-2.8-10-1.4-1.7-3.7-2.7-6.1-2.6h0Z"/>
  <path d="M155.7,59c1.6.2,3,.9,4.3,1.9,1.3,1.1,2,2.7,2,4.3,0,1.4-.5,2.7-1.3,3.7-.9,1.2-2.1,2.1-3.6,2.6-2.2.6-4.6.9-6.9.8h-13v-.7h1c.9.1,1.9-.3,2.5-1,.4-.9.6-1.9.5-2.9v-17c0-1.6-.2-2.6-.6-3.1-.6-.6-1.5-.9-2.4-.9h-1v-.7h11.9c1.8,0,3.6.1,5.3.5,1.8.3,3.4,1.2,4.6,2.5,1,1.1,1.6,2.5,1.6,4.1,0,1.3-.4,2.5-1.3,3.5-.9,1.3-2.2,2.1-3.6,2.4ZM145,58c.6.1,1.1.2,1.7.2s1.3.1,2.1.1c1.5.1,3-.1,4.4-.6.9-.4,1.7-1,2.3-1.9.5-.8.8-1.8.8-2.7,0-1.5-.8-3-2-3.9-1.7-1.2-3.7-1.8-5.7-1.6-1.2,0-2.5.1-3.6.4v10ZM145,70.5c1.5.3,3.1.5,4.6.5,2,.1,4-.4,5.6-1.6,1.2-.9,1.9-2.4,1.9-3.9,0-1-.3-2.1-.9-2.9-.7-1-1.7-1.8-2.8-2.2-1.6-.6-3.2-.9-4.9-.8h-2.1c-.5,0-1,.1-1.4.1v10.8h0Z"/>
  <path d="M179.4,45.6c3.5,0,6.8,1.4,9.3,3.9,2.6,2.5,4,6,3.9,9.7.1,3.7-1.3,7.3-3.9,9.9-5.3,5.2-13.8,5.3-19.1.1-2.6-2.7-4-6.3-3.9-10-.1-3.9,1.5-7.6,4.5-10.2,2.5-2.3,5.8-3.5,9.2-3.4ZM179,47c-2.3-.1-4.5.9-5.9,2.6-1.9,2.2-2.8,5.3-2.8,9.5s1,7.6,2.9,9.9c1.4,1.7,3.6,2.7,5.8,2.6,2.5.1,4.8-1,6.4-2.9,1.7-1.9,2.5-4.9,2.5-9.1,0-4.5-.9-7.8-2.8-10-1.5-1.7-3.7-2.7-6.1-2.6h0Z"/>
  <path d="M194.9,72.4v-.7h1c1,.1,1.9-.3,2.5-1.1.4-.9.5-1.9.5-2.9v-16.8c0-1.6-.2-2.7-.6-3.1-.6-.6-1.5-.9-2.4-.9h-1v-.7h11.2c4.1,0,7.2.4,9.4,1.3,2.2.9,4,2.5,5.2,4.4,1.3,2.2,2,4.6,2,7.2.1,3.4-1.2,6.7-3.5,9.1-2.6,2.7-6.6,4.1-11.9,4.1l-12.4.1ZM202.8,70.5c1.4.3,2.9.5,4.3.5,2.9.1,5.8-1.1,7.8-3.1,2.1-2.3,3.3-5.4,3.1-8.5,0-3.6-1-6.5-3.1-8.6s-5-3.2-8-3.1c-1.4,0-2.8.2-4.2.6l.1,22.2Z"/>
  <path d="M244,46.2h9.6v.7h-.6c-.5,0-1.1.2-1.5.4-.7.3-1.3.7-1.8,1.3-.8.8-1.5,1.7-2,2.7l-6.6,9.9v6.6c0,1.6.2,2.6.6,3,.7.6,1.5.9,2.4.8h.9v.7h-11.7v-.7h1c.9.1,1.9-.3,2.5-1,.4-.9.5-1.9.4-2.8v-6.2l-7.5-11c-.5-.8-1.2-1.6-1.8-2.4-.6-.5-1.3-.9-2-1.2-.4-.1-.8-.2-1.2-.2v-.7h11.8v.7h-.6c-.6,0-1.2.1-1.8.4-.5.2-.8.7-.8,1.3.2.9.6,1.8,1.2,2.5l5.7,8.4,5.4-8.1c.6-.8,1.1-1.7,1.2-2.7,0-.4-.1-.7-.3-1s-.5-.5-.8-.7c-.5-.2-1.1-.3-1.6-.2l-.1-.5Z"/>
  <rect class="st0" y="33.9" width="264.6" height="2.4"/>
</svg>