<?xml version="1.0" encoding="UTF-8"?>
<!-- PSG Logo - Dark Background Version -->
<!-- Use on: Navy, dark backgrounds -->
<svg id="Layer_1" data-name="Layer 1" xmlns="http://www.w3.org/2000/svg" xmlns:xlink="http://www.w3.org/1999/xlink" viewBox="0 0 221.56 106.54" shape-rendering="geometricPrecision">
  <defs>
    <clipPath id="clippath">
      <rect width="56.24" height="81.82" style="fill: none;"/>
    </clipPath>
    <clipPath id="clippath-1">
      <rect width="56.24" height="81.82" style="fill: none;"/>
    </clipPath>
  </defs>
  <g>
    <g id="Proxima_Nova" data-name="Proxima Nova">
      <path d="M78.89,70.35V17.8h23.26c11.12,0,17.31,7.56,17.31,16.46s-6.27,16.46-17.31,16.46h-13.97v19.62h-9.29ZM100.88,25.92h-12.7v16.7h12.7c5.24,0,9.05-3.31,9.05-8.35s-3.81-8.35-9.05-8.35Z" style="fill: #F8F6F3; stroke: #F8F6F3; stroke-width: 0.35; stroke-linejoin: round;"/>
      <path d="M128.91,55.85c3.65,3.86,9.37,7.25,16.75,7.25s10.64-3.7,10.64-7.17c0-4.73-5.64-6.14-12.07-7.8-8.65-2.13-18.82-4.65-18.82-15.76,0-8.67,7.7-15.36,19.29-15.36,8.26,0,14.93,2.6,19.85,7.33l-5.32,6.85c-4.13-4.1-9.77-5.99-15.32-5.99s-8.97,2.6-8.97,6.54,5.4,5.44,11.67,7.01c8.73,2.21,19.14,4.88,19.14,16.31,0,8.74-6.19,16.23-20.48,16.23-9.77,0-16.83-3.39-21.52-8.35l5.16-7.09Z" style="fill: #F8F6F3; stroke: #F8F6F3; stroke-width: 0.35; stroke-linejoin: round;"/>
      <path d="M199.73,16.94c10.32,0,17.07,4.88,21.36,10.95l-7.62,4.25c-2.78-3.94-7.78-7.01-13.74-7.01-10.48,0-18.26,7.96-18.26,18.99s7.78,19.06,18.26,19.06c5.4,0,10.16-2.52,12.55-4.73v-8.19h-15.8v-8.11h25.09v19.69c-5.24,5.75-12.62,9.53-21.83,9.53-15.32,0-27.79-10.79-27.79-27.26s12.47-27.18,27.79-27.18Z" style="fill: #F8F6F3; stroke: #F8F6F3; stroke-width: 0.35; stroke-linejoin: round;"/>
    </g>
    <g id="Bird">
      <g id="Bird_-_Legacy_Red" data-name="Bird - Legacy Red">
        <g style="clip-path: url(#clippath);">
          <g style="clip-path: url(#clippath-1);">
            <path d="M45.37,22.89c2.09.34,4.19.32,6.1,1.4,2.93,1.66,4.23,4.53,4.77,7.94-.29-.07-.49-.29-.78-.41-2.67-1.1-7.28-.64-9.73.98-4.54,2.99-1.36,8.3-.38,12.41,2.59,10.82.65,20.41-7.82,27.26l-2.15,1.54c.8-1.77,1.44-3.62,1.87-5.53,3.19-14.24-3.29-25.83-13.2-34.51C16.11,27.02,3.99,21.27.77,9.98-.16,6.71.06,3.38.12,0l2.23,3.83c2.77,4.15,7.37,6.28,11.95,7.1,7.95,1.41,17.48-1.49,24.7,3.13,2.97,1.9,5.88,4.98,6.36,8.83M33.07,20.29c2.71,1.29,6.18,5.76,8.76,1.78.06-.36-1.35-1.11-1.65-1.23-1.34-.55-5.55-1.19-6.84-.75-.11.04-.24.04-.26.21" style="fill: #B8483E; stroke: #8B3530; stroke-width: 0.5; stroke-linejoin: round;"/>
            <path d="M25.31,80.3c2.12-4.85,3.02-10.66,1.48-15.86C22.69,50.53,3.25,47.91.55,33.44c-.65-3.51-.4-7.1-.33-10.66,4.78,7.55,12.6,11.66,19.23,16.99,5.98,4.81,12.17,11.07,13.29,19.43,1.01,7.5-.92,14.25-5.78,19.68-.16.18-1.5,1.58-1.66,1.41" style="fill: #B8483E; stroke: #8B3530; stroke-width: 0.5; stroke-linejoin: round;"/>
            <path d="M22.49,81.82l-.2-.05c.49-5.04-3.81-8.61-7.22-11.21-4.4-3.35-9.48-6.04-12.43-11.14C.21,55.22-.27,50.44.12,45.58l1.81,2.44c6.36,7.3,19.86,11.64,22.32,21.86.97,4.03.4,8.48-1.77,11.94" style="fill: #B8483E; stroke: #8B3530; stroke-width: 0.5; stroke-linejoin: round;"/>
          </g>
        </g>
      </g>
    </g>
  </g>  <g style="shape-rendering: crispEdges;">
    <path d="M.49,106.36v-9.34h4.10c1.96,0,3.05,1.34,3.05,2.93s-1.11,2.93-3.05,2.93h-2.47v3.49H.49ZM4.37,98.45h-2.24v2.97h2.24c.92,0,1.6-.59,1.6-1.49s-.67-1.48-1.6-1.48Z" style="fill: #F8F6F3; stroke: #F8F6F3; stroke-width: 0.35; stroke-linejoin: round;"/>
    <path d="M16.86,106.36v-4.08h-4.86v4.08h-1.64v-9.34h1.64v3.82h4.86v-3.82h1.64v9.34h-1.64Z" style="fill: #F8F6F3; stroke: #F8F6F3; stroke-width: 0.35; stroke-linejoin: round;"/>
    <path d="M26.2,96.86c2.8,0,4.78,2.04,4.78,4.83s-1.98,4.83-4.78,4.83-4.78-2.04-4.78-4.83,1.98-4.83,4.78-4.83ZM26.2,98.31c-1.89,0-3.1,1.44-3.1,3.38s1.2,3.38,3.1,3.38,3.1-1.46,3.1-3.38-1.22-3.38-3.1-3.38Z" style="fill: #F8F6F3; stroke: #F8F6F3; stroke-width: 0.35; stroke-linejoin: round;"/>
    <path d="M33.91,106.36v-9.34h6.4v1.44h-4.76v2.42h4.66v1.44h-4.66v2.59h4.76v1.44h-6.4Z" style="fill: #F8F6F3; stroke: #F8F6F3; stroke-width: 0.35; stroke-linejoin: round;"/>
    <path d="M49.86,106.36l-4.88-6.81v6.81h-1.64v-9.34h1.68l4.78,6.63v-6.63h1.64v9.34h-1.58Z" style="fill: #F8F6F3; stroke: #F8F6F3; stroke-width: 0.35; stroke-linejoin: round;"/>
    <path d="M54.78,106.36v-9.34h1.64v9.34h-1.64Z" style="fill: #F8F6F3; stroke: #F8F6F3; stroke-width: 0.35; stroke-linejoin: round;"/>
    <path d="M66.02,106.36l-2.62-3.66-2.62,3.66h-1.96l3.5-4.79-3.29-4.55h1.96l2.41,3.43,2.4-3.43h1.98l-3.28,4.54,3.49,4.8h-1.96Z" style="fill: #F8F6F3; stroke: #F8F6F3; stroke-width: 0.35; stroke-linejoin: round;"/>
    <path d="M75.64,103.78c.64.69,1.65,1.29,2.96,1.29s1.88-.66,1.88-1.27c0-.84-.99-1.09-2.13-1.39-1.53-.38-3.32-.83-3.32-2.8,0-1.54,1.36-2.73,3.4-2.73,1.46,0,2.63.46,3.5,1.3l-.94,1.22c-.73-.73-1.72-1.06-2.7-1.06s-1.58.46-1.58,1.16.95.97,2.06,1.25c1.54.39,3.38.87,3.38,2.9,0,1.55-1.09,2.89-3.61,2.89-1.72,0-2.97-.6-3.8-1.49l.91-1.26Z" style="fill: #F8F6F3; stroke: #F8F6F3; stroke-width: 0.35; stroke-linejoin: round;"/>
    <path d="M89.37,96.86c2.8,0,4.78,2.04,4.78,4.83s-1.98,4.83-4.78,4.83-4.78-2.04-4.78-4.83,1.98-4.83,4.78-4.83ZM89.37,98.31c-1.89,0-3.1,1.44-3.1,3.38s1.21,3.38,3.1,3.38,3.1-1.46,3.1-3.38-1.22-3.38-3.10-3.38Z" style="fill: #F8F6F3; stroke: #F8F6F3; stroke-width: 0.35; stroke-linejoin: round;"/>
    <path d="M97.08,106.36v-9.34h1.64v7.9h4.12v1.44h-5.76Z" style="fill: #F8F6F3; stroke: #F8F6F3; stroke-width: 0.35; stroke-linejoin: round;"/>
    <path d="M105.32,97.01h1.65v5.6c0,1.48.83,2.45,2.4,2.45s2.38-.97,2.38-2.45v-5.6h1.65v5.65c0,2.33-1.33,3.87-4.03,3.87s-4.05-1.55-4.05-3.85v-5.66Z" style="fill: #F8F6F3; stroke: #F8F6F3; stroke-width: 0.35; stroke-linejoin: round;"/>
    <path d="M118.97,106.36v-7.9h-2.83v-1.44h7.3v1.44h-2.83v7.9h-1.64Z" style="fill: #F8F6F3; stroke: #F8F6F3; stroke-width: 0.35; stroke-linejoin: round;"/>
    <path d="M126.18,106.36v-9.34h1.64v9.34h-1.64Z" style="fill: #F8F6F3; stroke: #F8F6F3; stroke-width: 0.35; stroke-linejoin: round;"/>
    <path d="M135.52,96.86c2.8,0,4.78,2.04,4.78,4.83s-1.98,4.83-4.78,4.83-4.78-2.04-4.78-4.83,1.98-4.83,4.78-4.83ZM135.52,98.31c-1.89,0-3.1,1.44-3.1,3.38s1.21,3.38,3.1,3.38,3.1-1.46,3.1-3.38-1.22-3.38-3.10-3.38Z" style="fill: #F8F6F3; stroke: #F8F6F3; stroke-width: 0.35; stroke-linejoin: round;"/>
    <path d="M149.75,106.36l-4.87-6.81v6.81h-1.64v-9.34h1.68l4.78,6.63v-6.63h1.64v9.34h-1.58Z" style="fill: #F8F6F3; stroke: #F8F6F3; stroke-width: 0.35; stroke-linejoin: round;"/>
    <path d="M154.98,103.78c.64.69,1.65,1.29,2.96,1.29s1.88-.66,1.88-1.27c0-.84-1-1.09-2.13-1.39-1.53-.38-3.32-.83-3.32-2.8,0-1.54,1.36-2.73,3.4-2.73,1.46,0,2.63.46,3.5,1.3l-.94,1.22c-.73-.73-1.72-1.06-2.7-1.06s-1.58.46-1.58,1.16.95.97,2.06,1.25c1.54.39,3.38.87,3.38,2.9,0,1.55-1.09,2.89-3.61,2.89-1.72,0-2.97-.6-3.8-1.49l.91-1.26Z" style="fill: #F8F6F3; stroke: #F8F6F3; stroke-width: 0.35; stroke-linejoin: round;"/>
    <path d="M173.78,96.86c1.82,0,3.01.87,3.77,1.95l-1.34.76c-.49-.7-1.37-1.25-2.42-1.25-1.85,0-3.22,1.42-3.22,3.38s1.37,3.39,3.22,3.39c.95,0,1.79-.45,2.21-.84v-1.46h-2.79v-1.44h4.43v3.5c-.92,1.02-2.23,1.69-3.85,1.69-2.7,0-4.9-1.92-4.9-4.85s2.2-4.83,4.9-4.83Z" style="fill: #F8F6F3; stroke: #F8F6F3; stroke-width: 0.35; stroke-linejoin: round;"/>
    <path d="M186.04,106.36l-2.07-3.49h-1.62v3.49h-1.64v-9.34h4.1c1.85,0,3.05,1.21,3.05,2.93s-1.09,2.56-2.21,2.75l2.28,3.67h-1.89ZM184.58,98.45h-2.24v2.97h2.24c.92,0,1.6-.59,1.6-1.49s-.67-1.48-1.6-1.48Z" style="fill: #F8F6F3; stroke: #F8F6F3; stroke-width: 0.35; stroke-linejoin: round;"/>
    <path d="M195.2,96.86c2.8,0,4.78,2.04,4.78,4.83s-1.98,4.83-4.78,4.83-4.78-2.04-4.78-4.83,1.98-4.83,4.78-4.83ZM195.2,98.31c-1.89,0-3.1,1.44-3.1,3.38s1.21,3.38,3.1,3.38,3.1-1.46,3.1-3.38-1.22-3.38-3.10-3.38Z" style="fill: #F8F6F3; stroke: #F8F6F3; stroke-width: 0.35; stroke-linejoin: round;"/>
    <path d="M202.92,97.01h1.65v5.6c0,1.48.83,2.45,2.4,2.45s2.38-.97,2.38-2.45v-5.6h1.65v5.65c0,2.33-1.33,3.87-4.03,3.87s-4.05-1.55-4.05-3.85v-5.66Z" style="fill: #F8F6F3; stroke: #F8F6F3; stroke-width: 0.35; stroke-linejoin: round;"/>
    <path d="M214.34,106.36v-9.34h4.1c1.96,0,3.05,1.34,3.05,2.93s-1.11,2.93-3.05,2.93h-2.46v3.49h-1.64ZM218.22,98.45h-2.24v2.97h2.24c.92,0,1.6-.59,1.6-1.49s-.67-1.48-1.6-1.48Z" style="fill: #F8F6F3; stroke: #F8F6F3; stroke-width: 0.35; stroke-linejoin: round;"/>
  </g>
</svg>
