<?xml version="1.0" encoding="UTF-8"?>
<svg id="a" data-name="Layer 1" xmlns="http://www.w3.org/2000/svg" viewBox="0 0 322.71 428.63">
  <defs>
    <style>
      .b {
        fill: #b9493e;
      }
    </style>
  </defs>
  <path class="b" d="M194.18,408.54c23.1-33.06,15.08-63.6-5.33-84.01-36.1-36.1-82.36-51.19-125.51-79.76C5.3,206.34-14.11,175.72,10.34,93.76c-1.64,36.46,18.31,59.89,60.28,87.07,41.91,27.13,126.17,68.53,148.85,102.89,24.68,37.38,5.66,95.41-25.28,124.83Z"/>
  <path class="b" d="M161.27,428.63h0c16.2-20.1-7-48.01-25.49-60.03-13.46-8.75-49.07-25.82-85.25-43.78-36.19-17.96-55.76-48.91-40.19-103.81,3.13,22.45,17.47,30.69,37.62,44.05,44.32,29.39,106.2,48.69,133.93,85.61,13.06,17.39,8.21,50.86-20.62,77.96Z"/>
  <path class="b" d="M264.16,166.18c13.37-8.6,39.73-13.24,58.55-5.44-2.62-16.99-16.67-44.82-56.81-55.55-3.09-.83-5.71-2.86-7.21-5.68-7.63-14.37-15.55-21.66-30.46-30.86-39.82-24.58-93.13-10.41-137.26-18.4-16.44-2.98-39.87-7.48-55.2-19.66C25.82,22.67,21.86,11.03,20.39,0c-6.49,13.3-46.84,101.71,102.36,178.41,61.53,31.63,97.51,53.79,123.85,96.74,17.78,28.98,14.71,76.07-19.67,115.23,0,0,105.71-65.7,37.06-178.38-11.42-18.74-24.77-29.78.17-45.82ZM191.45,100.46c4.28-5.2,30.33-2.67,37.87,0,6.69,2.37,13.69,6.37,14.95,10.05-14.68,20.38-44.4-11.23-52.81-10.05Z"/>
</svg>