<svg xmlns="http://www.w3.org/2000/svg" viewBox="-2 -2 113 143" role="img" aria-label="PSG mark">
<g fill="#B8483E">
<path d="M62.7,131.92c7.46-10.67,4.87-20.54-1.72-27.13-11.66-11.66-26.59-16.53-40.53-25.75C1.71,66.63-4.56,56.74,3.34,30.28c-.53,11.77,5.91,19.34,19.47,28.11,13.53,8.76,40.74,22.13,48.06,33.22,7.97,12.07,1.83,30.81-8.16,40.31Z"></path>
<path d="M52.07,138.41h0c5.23-6.49-2.26-15.5-8.23-19.38-4.34-2.83-15.84-8.34-27.53-14.14-11.69-5.8-18.01-15.79-12.98-33.52,1.01,7.25,5.64,9.91,12.15,14.22,14.31,9.49,34.29,15.72,43.25,27.64,4.22,5.61,2.65,16.42-6.66,25.17Z"></path>
<path d="M85.3,53.66c4.32-2.78,12.83-4.27,18.91-1.76-.85-5.49-5.38-14.47-18.34-17.94-1-.27-1.85-.92-2.33-1.84-2.46-4.64-5.02-6.99-9.83-9.96-12.86-7.94-30.07-3.36-44.32-5.94-5.31-.96-12.88-2.42-17.82-6.35C8.34,7.32,7.06,3.56,6.58,0c-2.09,4.29-15.12,32.84,33.05,57.61,19.87,10.21,31.49,17.37,39.99,31.24,5.74,9.36,4.75,24.56-6.35,37.21,0,0,34.14-21.22,11.97-57.6-3.69-6.05-8-9.61.06-14.8ZM61.82,32.44c1.38-1.68,9.79-.86,12.23,0,2.16.77,4.42,2.06,4.83,3.24-4.74,6.58-14.34-3.63-17.05-3.24Z"></path>
</g></svg>